<svg width="440" height="280" xmlns="http://www.w3.org/2000/svg">
 <!-- Created with Method Draw - http://github.com/duopixel/Method-Draw/ -->
 <g>
  <title>background</title>
  <rect fill="#008cd3" id="canvas_background" height="282" width="442" y="-1" x="-1"/>
  <g display="none" id="canvasGrid">
   <rect fill="url(#gridpattern)" stroke-width="0" y="0" x="0" height="100%" width="100%" id="svg_1"/>
  </g>
 </g>
 <g>
  <title>Layer 1</title>
  <defs>
   <linearGradient id="svg_111" x1="-0.03332" x2="1.0333" y1="0.9706" y2="0.0294">
    <stop stop-color="#1f42f7" offset="0"/>
    <stop stop-color="#63b106" offset="0.472"/>
   </linearGradient>
  </defs>
  <g stroke="null" transform="matrix(0.27046906913483104,0,0,0.27046906913483104,-4254.663287431991,-2698.3677626527497) " id="svg_118">
   <title>Project Aid for Jira</title>
   <rect stroke="null" x="16143.08432" y="10066.136719" width="802" height="432" fill="none" id="svg_116"/>
  </g>
  <g stroke="null" transform="matrix(0.27046906913483104,0,0,0.27046906913483104,-4254.663287431991,-2698.3677626527497) " id="svg_119">
   <title>background</title>
   <rect stroke="null" x="16143.08432" y="10066.136719" width="802" height="432" id="svg_115" fill="none"/>
  </g>
  <g stroke="null" transform="matrix(0.27046906913483104,0,0,0.27046906913483104,-4254.663287431991,-2698.3677626527497) " id="svg_120">
   <g stroke="null" transform="matrix(0.52089,0,0,0.52089,-1460.2,-1278.3) " id="svg_113">
    <title>Hexagon 01 Fill BG</title>
    <rect stroke="null" x="34298.570081" y="21801.598828" width="532" height="602" fill="none" id="svg_114"/>
   </g>
   <g stroke="null" transform="matrix(0.52089,0,0,0.52089,-1460.2,-1278.3) " id="svg_109">
    <title>Hexagon 01 Fill</title>
    <g stroke="null" fill="url(#svg_111)" id="svg_110">
     <path stroke="null" d="m34582.37008,21808.39883l227.25,131.2a36.554,36.554 0 0 1 18.277,31.655l0,262.41a36.554,36.554 0 0 1 -18.277,31.655l-227.25,131.2a36.554,36.554 0 0 1 -36.554,0l-227.25,-131.2a36.554,36.554 0 0 1 -18.277,-31.655l0,-262.41a36.554,36.554 0 0 1 18.277,-31.655l227.25,-131.2a36.554,36.554 0 0 1 36.554,0z" id="svg_112"/>
    </g>
   </g>
   <g stroke="null" transform="matrix(0.48974,0,0,0.48974,-2447.5,-1502.9) " id="svg_107">
    <title>Hexagon 02 Frame BG</title>
    <rect stroke="null" x="38503.00144" y="23661.483984" width="552" height="612" fill="none" id="svg_108"/>
   </g>
   <g stroke="null" transform="matrix(0.48974,0,0,0.48974,-2447.5,-1502.9) " id="svg_104">
    <title>Hexagon 02 Frame BG</title>
    <g stroke="null" fill="#fff" id="svg_105">
     <path stroke="null" d="m38779.00144,24261.18398c-11.123,0 -21.593,-2.6173 -31.407,-8.5062l-202.19,-115.81c-19.63,-11.123 -31.407,-32.062 -31.407,-54.309l0,-231.63c0,-22.247 11.778,-43.185 31.407,-54.309l202.19,-115.81c19.63,-11.123 43.185,-11.123 62.815,0l202.19,115.81c19.63,11.123 31.407,32.062 31.407,54.309l0,232.28c0,22.247 -11.778,43.185 -31.407,54.309l-202.19,115.16c-9.8148,5.8889 -20.284,8.5062 -31.407,8.5062l-0.001,0zm0,-575.8c-8.5062,0 -17.012,1.963 -24.864,6.5432l-202.19,116.47c-15.049,8.5062 -24.864,24.864 -24.864,42.531l0,232.28c0,17.667 9.1605,34.025 24.864,42.531l202.19,115.81c15.049,8.5062 34.025,8.5062 49.074,0l202.19,-115.81c15.049,-8.5062 24.864,-24.864 24.864,-42.531l0,-232.28c0,-17.667 -9.1605,-34.025 -24.864,-42.531l-201.53,-116.47c-7.8518,-3.9259 -16.358,-6.5432 -24.864,-6.5432l-0.006,0zm0,511.02c-8.5062,0 -17.667,-1.963 -24.864,-6.5432l-157.04,-90.296c-15.704,-9.1605 -24.864,-25.519 -24.864,-43.185l0,-179.94c0,-17.667 9.8148,-34.025 24.864,-43.185l157.04,-90.296c15.704,-9.1605 34.679,-9.1605 50.383,0l157.04,90.296c15.704,9.1605 24.864,25.519 24.864,43.185l0,179.94c0,17.667 -9.8148,34.025 -24.864,43.185l-157.04,90.296c-7.8518,4.5802 -17.012,6.5432 -25.519,6.5432zm0,-446.25c-6.5432,0 -12.432,1.3086 -18.321,4.5802l-157.04,90.296c-11.123,6.5432 -18.321,18.321 -18.321,31.407l0,179.94c0,13.086 7.1975,24.864 18.321,31.407l157.04,90.296c11.123,6.5432 25.519,6.5432 36.642,0l157.04,-90.296c11.123,-6.5432 18.321,-18.321 18.321,-31.407l0,-179.94c0,-13.086 -7.1975,-24.864 -18.321,-31.407l-157.04,-90.296c-5.8889,-2.6173 -11.778,-4.5802 -18.321,-4.5802z" id="svg_106"/>
    </g>
   </g>
   <g stroke="null" transform="matrix(0.37427,0,0,0.37427,-978.6,-643.81) " id="svg_102">
    <title>Hexagon 03 White BG</title>
    <rect stroke="null" x="46552.360535" y="28767.858594" width="532" height="602" fill="none" id="svg_103"/>
   </g>
   <g stroke="null" transform="matrix(0.37427,0,0,0.37427,-978.6,-643.81) " id="svg_99">
    <title>Hexagon 03 White</title>
    <g stroke="null" fill="#fff" id="svg_100">
     <path stroke="null" d="m46836.66054,28778.65859l224.23,129.46a36.069,36.069 0 0 1 18.034,31.235l0,258.92a36.069,36.069 0 0 1 -18.034,31.235l-224.23,129.46a36.069,36.069 0 0 1 -36.06901,0l-224.23,-129.46a36.069,36.069 0 0 1 -18.034,-31.235l0,-258.92a36.069,36.069 0 0 1 18.034,-31.235l224.23,-129.46a36.069,36.069 0 0 1 36.06901,0z" id="svg_101"/>
    </g>
   </g>
  </g>
  <g stroke="null" transform="matrix(0.27046906913483104,0,0,0.27046906913483104,-4254.663287431991,-2698.3677626527497) " id="svg_121">
   <g stroke="null" transform="matrix(0.26743,0,0,0.26743,-164.27,-83.492) " id="svg_97">
    <title>Sheet BG</title>
    <rect stroke="null" x="62238.513428" y="38337.007813" width="477" height="477" fill="none" id="svg_98"/>
   </g>
   <g stroke="null" transform="matrix(0.26743,0,0,0.26743,-164.27,-83.492) " id="svg_79">
    <title>Sheet</title>
    <g stroke="#519205" fill="none" stroke-width="4.5" id="svg_92">
     <rect stroke="null" x="62249.513428" y="38348.007813" width="457" height="457" id="svg_96"/>
     <rect stroke="null" x="62341.513428" y="38405.007813" width="365" height="400" id="svg_95"/>
     <line stroke="null" x1="62341.513428" x2="62341.513428" y1="38405.007813" y2="38350.007813" fill-opacity="null" stroke-linecap="null" stroke-linejoin="null" stroke-opacity="null" id="svg_94"/>
     <line stroke="null" x1="62249.513428" x2="62341.513428" y1="38405.007813" y2="38405.007813" fill-opacity="null" stroke-linecap="null" stroke-linejoin="null" stroke-opacity="null" id="svg_93"/>
    </g>
    <line stroke="#519205" x1="62435.013428" x2="62435.013428" y1="38348.007813" y2="38803.007813" fill="none" stroke-linecap="null" stroke-linejoin="null" stroke-width="2.5" id="svg_91"/>
    <line stroke="#519205" x1="62530.013428" x2="62530.013428" y1="38348.007813" y2="38403.007813" fill="none" stroke-linecap="null" stroke-linejoin="null" stroke-width="2.5" id="svg_90"/>
    <line stroke="#519205" x1="62620.013428" x2="62620.013428" y1="38348.007813" y2="38403.007813" fill="none" stroke-linecap="null" stroke-linejoin="null" stroke-width="2.5" id="svg_89"/>
    <line stroke="#519205" x1="62250.013428" x2="62435.013428" y1="38458.007813" y2="38458.007813" fill="none" stroke-linecap="null" stroke-linejoin="null" stroke-width="2.5" id="svg_88"/>
    <line stroke="#519205" x1="62250.013428" x2="62435.013428" y1="38508.007813" y2="38508.007813" fill="none" stroke-linecap="null" stroke-linejoin="null" stroke-width="2.5" id="svg_87"/>
    <line stroke="#519205" x1="62250.013428" x2="62707.013428" y1="38558.007813" y2="38558.007813" fill="none" stroke-linecap="null" stroke-linejoin="null" stroke-width="2.5" id="svg_86"/>
    <line stroke="#519205" x1="62250.013428" x2="62707.013428" y1="38608.007813" y2="38607.007813" fill="none" stroke-linecap="null" stroke-linejoin="null" stroke-width="2.5" id="svg_85"/>
    <line stroke="#519205" x1="62250.013428" x2="62707.013428" y1="38658.007813" y2="38658.007813" fill="none" stroke-linecap="null" stroke-linejoin="null" stroke-width="2.5" id="svg_84"/>
    <line stroke="#519205" x1="62250.013428" x2="62707.013428" y1="38708.007813" y2="38708.007813" fill="none" stroke-linecap="null" stroke-linejoin="null" stroke-width="2.5" id="svg_83"/>
    <line stroke="#519205" x1="62250.013428" x2="62707.013428" y1="38758.007813" y2="38758.007813" fill="none" stroke-linecap="null" stroke-linejoin="null" stroke-width="2.5" id="svg_82"/>
    <line stroke="#519205" x1="62530.013428" x2="62530.013428" y1="38558.007813" y2="38803.007813" fill="none" stroke-linecap="null" stroke-linejoin="null" stroke-width="2.5" id="svg_81"/>
    <line stroke="#519205" x1="62620.013428" x2="62620.013428" y1="38558.007813" y2="38803.007813" fill="none" stroke-linecap="null" stroke-linejoin="null" stroke-width="2.5" id="svg_80"/>
   </g>
  </g>
  <g stroke="null" transform="matrix(0.27046906913483104,0,0,0.27046906913483104,-4254.663287431991,-2698.3677626527497) " id="svg_122">
   <g stroke="null" transform="matrix(0.066501,0,0,0.066501,203.76,105.65) " id="svg_77">
    <title>Diagram BG</title>
    <rect stroke="null" x="245805.641992" y="151629.104375" width="582" height="582" fill="none" id="svg_78"/>
   </g>
   <g stroke="null" transform="matrix(0.066501,0,0,0.066501,203.76,105.65) " id="svg_74">
    <title>Diagram</title>
    <g stroke="null" fill="#519205" id="svg_75">
     <path stroke="null" d="m245816.64199,151931.26437c5.5665,149.86 130.06,270.62 280.74,270.62c71.295,0 138.86,-26.65299 191.1,-75.189l-195.43,-195.43l-276.41,0l0.00001,0l-0.00001,-0.001zm305.99,0l180.65,180.65a279.56,279.56 0 0 0 74.832,-180.65l-255.48,0l-0.002,0zm180.65,-201.54999l-180.65,180.62l255.48,0a279.78,279.78 0 0 0 -74.832,-180.62l0.002,0zm-486.64,180.65l270.26,0l0,-270.24a279.15,279.15 0 0 0 -270.26,270.24zm291.21,-14.807l180.62,-180.65a279.39,279.39 0 0 0 -180.62,-74.805l0,255.46l0,-0.005z" id="svg_76"/>
    </g>
   </g>
  </g>
  <g stroke="null" transform="matrix(0.4203912215223275,0,0,0.4203912215223275,-6677.76308891124,-4256.143986389394) " id="svg_123">
   <title>Text</title>
   <g stroke="null" id="svg_68">
    <g stroke="null" transform="matrix(1.009,0,0,1.009,-2935,-2008) " id="svg_72">
     <title>Project title BG</title>
     <rect stroke="null" x="18895.76124" y="12291.64082" width="552" height="92" fill="none" id="svg_73"/>
    </g>
    <g stroke="null" transform="matrix(1.009,0,0,1.009,-2935,-2008) " id="svg_69">
     <title>Project title</title>
     <g stroke="null" fill="#ffffff" id="svg_70">
      <path stroke="null" d="m18918.06124,12314.14082l-5.8545,36.865l6.1975,0l2.104,-12.99c3.2931,0.50312 6.3805,0.75468 9.2391,0.75468c2.8358,0 5.3056,-0.89189 7.4324,-2.6757c2.1497,-1.7838 3.5218,-4.7339 4.1622,-8.8732c0.2973,-1.738 0.43452,-2.973 0.43452,-3.7505c0,-3.3846 -0.82329,-5.8087 -2.4699,-7.2266c-1.6466,-1.395 -3.9106,-2.104 -6.7692,-2.104l-14.476,0l0,0.00001l-0.00012,0.00031zm10.931,19.073l-7.7983,0l2.1497,-13.538l8.0042,0c1.3493,0 2.4012,0.34304 3.0873,1.0291c0.70894,0.68607 1.052,1.8066 1.052,3.3618c0,0.48025 -0.09148,1.3035 -0.2973,2.5156c-0.34303,2.2183 -1.052,3.8877 -2.1268,4.9854c-1.0748,1.0977 -2.447,1.6466 -4.0707,1.6466l-0.0001,-0.0005zm22.435,-8.9875l-4.2536,26.78l6.1975,0l2.9501,-18.432c2.1726,-1.5322 4.5281,-2.3098 7.0894,-2.3098c1.2121,0 2.3098,0.06861 3.316,0.16008l0.89189,-6.1518c-0.73181,-0.22869 -1.6923,-0.34304 -2.9044,-0.34304c-2.6299,0 -5.1684,1.2349 -7.6383,3.7048l-0.20582,-3.4075l-5.4428,0l0.00003,-0.00074zm22.274,17.838c0,6.1518 3.4304,9.2391 10.314,9.2391c2.9501,0 5.3514,-0.36591 7.2038,-1.0748s3.3389,-1.9667 4.4595,-3.7505c1.0977,-1.7838 1.921,-4.2994 2.4241,-7.5696c0.2973,-1.9667 0.43452,-3.7505 0.43452,-5.3285c0,-2.2869 -0.2973,-4.0936 -0.8919,-5.4886c-0.59459,-1.3721 -1.6466,-2.4241 -3.1331,-3.1102c-1.4636,-0.70894 -3.5447,-1.052 -6.2204,-1.052c-2.9958,0 -5.3971,0.36591 -7.2266,1.0748c-1.8295,0.70894 -3.316,2.0125 -4.4366,3.9106c-1.1206,1.8981 -1.9439,4.6196 -2.5156,8.1414c-0.27443,1.7152 -0.41164,3.3846 -0.41164,5.0083l-0.00008,0zm14.659,3.5904c-0.91476,0.43452 -2.1268,0.66321 -3.659,0.66321c-1.6694,0 -2.9044,-0.32017 -3.7048,-0.9605c-0.80042,-0.64034 -1.1892,-1.8067 -1.1892,-3.5447c0,-0.80041 0.11435,-2.0582 0.34304,-3.7963c0.41164,-2.5385 0.89189,-4.4366 1.4408,-5.7401c0.54885,-1.3035 1.2578,-2.1954 2.1726,-2.6985c0.89189,-0.50312 2.1268,-0.75468 3.6819,-0.75468c1.8067,0 3.0873,0.34304 3.8191,1.0291c0.75468,0.68607 1.1434,1.8295 1.1434,3.4761c0,0.84616 -0.16008,2.4241 -0.45738,4.6882c-0.3659,2.2869 -0.82328,4.0478 -1.395,5.2141c-0.57172,1.1892 -1.3035,1.9896 -2.1954,2.4241l-0.00006,-0.00003zm22.961,-25.933c0.13721,0.18295 0.34304,0.25156 0.61746,0.25156l4.6882,0c0.57172,0 0.91476,-0.2973 1.0062,-0.89189l0.68608,-4.5509c0.0686,-0.2973 0.04573,-0.54886 -0.06861,-0.73181c-0.11435,-0.18295 -0.32017,-0.27443 -0.61747,-0.27443l-4.6882,0c-0.64033,0 -1.0062,0.34304 -1.1206,1.0062l-0.68607,4.5509c-0.04574,0.27443 0.02287,0.48025 0.18295,0.64033l0.00006,0.00004zm-0.89189,4.5052l-6.1289,38.626l4.5967,0c1.8295,-4.5738 2.973,-8.4387 3.4304,-11.64l4.2994,-26.985l-6.1975,0l-0.0001,-0.001zm16.328,24.63c1.6694,1.6237 4.3909,2.447 8.1642,2.447c3.7048,0 7.0894,-0.32017 10.2,-0.93763l0.5946,-3.659l-8.3929,0c-2.4699,0 -4.2536,-0.36591 -5.3514,-1.0748c-1.0977,-0.70894 -1.6466,-1.8524 -1.6466,-3.4304c0,-0.75468 0.04574,-1.5094 0.13722,-2.2412c1.6008,0.41164 3.6819,0.5946 6.1975,0.5946c3.6819,0 6.5634,-0.64034 8.6902,-1.921c2.1497,-1.2807 3.2017,-3.6133 3.2017,-7.0208c0,-2.8586 -0.8919,-4.8711 -2.6986,-6.0146c-1.7838,-1.1434 -4.2308,-1.7152 -7.2952,-1.7152c-4.025,0 -7.1809,0.98336 -9.4678,2.9958c-2.264,1.9896 -3.7276,5.0998 -4.368,9.3306c-0.32017,2.1954 -0.50312,3.9792 -0.50312,5.3056c0,3.2703 0.84615,5.7173 2.5385,7.341l-0.0003,0.00003zm14.133,-12.921c-1.2807,0.73181 -3.2474,1.0748 -5.9231,1.0748c-1.4408,0 -2.79,-0.11435 -4.0936,-0.34304c0.43451,-2.6986 1.1892,-4.711 2.2869,-6.0374c1.0977,-1.3493 2.7672,-2.0125 5.0083,-2.0125c1.5551,0 2.7214,0.2973 3.499,0.86902c0.75467,0.5946 1.1434,1.5094 1.1434,2.79c0,1.7152 -0.64034,2.9501 -1.921,3.659l0.0001,0.00012zm18.181,13.127c1.6466,1.4865 4.0478,2.2412 7.1809,2.2412c3.2931,0 6.2204,-0.38878 8.7817,-1.1892l0.54885,-3.499l-7.3867,0c-1.8295,0 -3.2017,-0.45738 -4.0936,-1.3264c-0.91477,-0.89189 -1.3493,-2.4012 -1.3493,-4.5281c0,-0.68607 0.11435,-1.738 0.34304,-3.0873c0.52599,-3.1788 1.4179,-5.4428 2.6299,-6.8607c1.2121,-1.395 2.9272,-2.0811 5.1227,-2.0811l7.0894,0l0.59459,-3.6133c-3.5676,-0.80042 -6.5863,-1.1892 -9.0333,-1.1892c-6.9751,0 -11.114,4.2079 -12.441,12.647c-0.29729,1.8524 -0.45738,3.4304 -0.45738,4.7339c0,3.659 0.82329,6.2432 2.4699,7.7526l0.0003,-0.0004zm28.609,-4.0021c0,3.9563 2.5385,5.946 7.5925,5.946l3.842,0l0.75468,-4.5509l-3.0873,-0.2973c-1.0062,-0.09147 -1.738,-0.3659 -2.1726,-0.77754c-0.45739,-0.41165 -0.68608,-1.0748 -0.68608,-1.9667c0,-0.73181 0.11435,-1.6923 0.34304,-2.8586l1.8066,-11.343l6.7921,0l0.75468,-4.9854l-6.7921,0l1.1892,-7.501l-4.8482,0l-2.0354,7.501l-4.5509,1.0062l-0.6632,3.9792l4.2536,0l-2.0353,11.297c-0.2973,1.8066 -0.45738,3.316 -0.45738,4.5509l0.00006,0.00014zm55.252,-30.919l-17.975,36.865l6.3805,0l4.2079,-8.6902l13.401,0l1.395,8.6902l6.3805,0l-5.9917,-36.865l-7.7983,0l0.0001,0zm5.3971,22.617l-10.428,0l8.027,-17.289l2.4012,17.289l-0.0002,0zm22.709,-17.037c0.16008,0.18295 0.36591,0.25156 0.64033,0.25156l4.6882,0c0.57172,0 0.89189,-0.2973 1.0062,-0.89189l0.68607,-4.5509c0.0686,-0.2973 0.04573,-0.54886 -0.06861,-0.73181c-0.11435,-0.18295 -0.32017,-0.27443 -0.61746,-0.27443l-4.711,0c-0.61746,0 -0.98337,0.34304 -1.0977,1.0062l-0.68607,4.5509c-0.04574,0.27443 0.02287,0.48025 0.16008,0.64033l-0.00004,0.00004zm-0.86902,4.5052l-4.2536,26.78l6.1975,0l4.2536,-26.78l-6.1975,0zm15.757,24.676c1.3493,1.6008 3.2245,2.4012 5.6258,2.4012c1.4636,0 2.9272,-0.2973 4.3909,-0.86903c1.4636,-0.59459 2.7672,-1.3035 3.9106,-2.1726l0.2973,2.7443l5.4428,0l6.0374,-38.123l-6.1975,0l-1.8295,11.983c-1.6008,-0.61747 -3.499,-0.93764 -5.6944,-0.93764c-2.973,0 -5.3514,0.48025 -7.158,1.4636c-1.7838,0.98337 -3.1559,2.3784 -4.0936,4.185c-0.93763,1.7838 -1.6694,4.1164 -2.1954,6.9293c-0.36591,2.0353 -0.54886,3.9335 -0.54886,5.6486c0,2.9044 0.6632,5.1455 2.0125,6.7464l-0.00004,0.00087zm11.389,-3.1331c-0.9605,0.3659 -2.0354,0.54886 -3.1559,0.54886c-1.2121,0 -2.1726,-0.41165 -2.9272,-1.2349c-0.75467,-0.82329 -1.1206,-2.1268 -1.1206,-3.9792c0,-1.1206 0.11435,-2.2869 0.34304,-3.499c0.41164,-2.2183 0.91476,-3.9563 1.5551,-5.2141c0.61747,-1.2349 1.4408,-2.1268 2.4241,-2.6757c0.98337,-0.52598 2.2183,-0.80041 3.7276,-0.80041c1.7609,0 3.2932,0.3659 4.5967,1.052l-2.264,14.247c-1.1206,0.6632 -2.1954,1.1892 -3.1788,1.5551l-0.00004,0.00035zm41.645,-16.489l-3.3846,21.726l6.1518,0l3.4304,-21.726l7.1123,0l0.80042,-5.0541l-7.1123,0l0.3659,-2.3555c0.18296,-1.5322 0.61747,-2.6299 1.2349,-3.316c0.64033,-0.68607 1.6694,-1.0291 3.1102,-1.0291l4.2308,0l0.70894,-4.4823c-1.8753,-0.32017 -3.8649,-0.45738 -5.9917,-0.45738c-2.9044,0 -5.0541,0.64033 -6.4491,1.9439c-1.395,1.3035 -2.2869,3.2017 -2.6986,5.6944l-0.70894,4.0021l-3.9792,1.052l-0.66321,4.0021l3.842,0l-0.00001,-0.00012zm19.896,12.784c0,6.1518 3.4304,9.2391 10.291,9.2391c2.973,0 5.3742,-0.36591 7.2266,-1.0748c1.8524,-0.70894 3.316,-1.9667 4.4366,-3.7505c1.1206,-1.7838 1.921,-4.2994 2.4241,-7.5696c0.29729,-1.9667 0.45738,-3.7505 0.45738,-5.3285c0,-2.2869 -0.2973,-4.0936 -0.8919,-5.4886c-0.61746,-1.3721 -1.6466,-2.4241 -3.1331,-3.1102c-1.4865,-0.70894 -3.5447,-1.052 -6.2204,-1.052c-2.9958,0 -5.42,0.36591 -7.2495,1.0748s-3.2931,2.0125 -4.4137,3.9106c-1.1206,1.8981 -1.9667,4.6196 -2.5156,8.1414c-0.27443,1.7152 -0.41164,3.3846 -0.41164,5.0083l0.00016,0zm14.636,3.5904c-0.89189,0.43452 -2.104,0.66321 -3.6362,0.66321c-1.6694,0 -2.9044,-0.32017 -3.7048,-0.9605c-0.80041,-0.64034 -1.1892,-1.8067 -1.1892,-3.5447c0,-0.80041 0.11435,-2.0582 0.34304,-3.7963c0.38877,-2.5385 0.86902,-4.4366 1.4179,-5.7401c0.54886,-1.3035 1.2807,-2.1954 2.1726,-2.6985c0.89189,-0.50312 2.1268,-0.75468 3.7048,-0.75468c1.7838,0 3.0644,0.34304 3.8191,1.0291s1.1206,1.8295 1.1206,3.4761c0,0.84616 -0.13722,2.4241 -0.45739,4.6882c-0.3659,2.2869 -0.82328,4.0478 -1.395,5.2141c-0.54885,1.1892 -1.3035,1.9896 -2.1954,2.4241l-0.00001,0l-0.00004,-0.00003zm22.137,-21.428l-4.2536,26.78l6.1975,0l2.9501,-18.432c2.1726,-1.5322 4.5281,-2.3098 7.0894,-2.3098c1.2121,0 2.3098,0.06861 3.316,0.16008l0.8919,-6.1518c-0.73181,-0.22869 -1.6923,-0.34304 -2.9044,-0.34304c-2.6299,0 -5.1684,1.2349 -7.6383,3.7048l-0.20582,-3.4075l-5.4428,0l0.00002,-0.00074zm39.632,26.757c1.0291,0.20582 2.0811,0.32017 3.1331,0.32017c3.1102,0 5.4657,-0.70894 7.0665,-2.1497c1.6237,-1.4179 2.6985,-3.7963 3.2245,-7.0894l4.4595,-27.923l-6.1975,0l-4.2536,26.665c-0.27442,1.6694 -0.82328,2.9044 -1.6694,3.6819c-0.84615,0.77755 -2.0582,1.1663 -3.6133,1.1663c-1.4408,0 -2.7214,-0.11434 -3.8649,-0.34303l-0.80042,4.8482c0.64033,0.32016 1.4636,0.59459 2.5156,0.82328l-0.00001,0l-0.00007,0.00028zm27.694,-31.262c0.16009,0.18295 0.36591,0.25156 0.61747,0.25156l4.711,0c0.54886,0 0.89189,-0.2973 0.98337,-0.89189l0.70894,-4.5509c0.06861,-0.2973 0.04574,-0.54886 -0.06861,-0.73181c-0.11434,-0.18295 -0.32017,-0.27443 -0.64033,-0.27443l-4.6882,0c-0.64034,0 -1.0062,0.34304 -1.0977,1.0062l-0.70894,4.5509c-0.02287,0.27443 0.02287,0.48025 0.18295,0.64033l0.00005,0.00004zm-0.86902,4.5052l-4.2536,26.78l6.1975,0l4.2536,-26.78l-6.1975,0zm17.037,0l-4.2536,26.78l6.1975,0l2.9501,-18.432c2.1726,-1.5322 4.5281,-2.3098 7.0894,-2.3098c1.2121,0 2.3098,0.06861 3.2931,0.16008l0.91477,-6.1518c-0.73181,-0.22869 -1.7152,-0.34304 -2.9044,-0.34304c-2.6299,0 -5.1913,1.2349 -7.6383,3.7048l-0.20582,-3.4075l-5.4428,0l0.00005,-0.00074zm23.235,24.813c1.395,1.5094 3.2017,2.264 5.3971,2.264c1.4865,0 3.0644,-0.32017 4.711,-1.0062c1.6466,-0.6632 2.9044,-1.3493 3.7734,-2.0354l0.2973,2.7443l5.4428,0l3.7963,-23.99c-1.1663,-0.9605 -2.7443,-1.7152 -4.7339,-2.264c-2.0125,-0.54886 -4.0707,-0.82329 -6.1975,-0.82329c-4.2308,0 -7.4553,1.0291 -9.6736,3.0873c-2.2183,2.0811 -3.659,5.3056 -4.368,9.6965c-0.36591,2.5613 -0.54886,4.3908 -0.54886,5.4428c0,3.0644 0.70894,5.3514 2.104,6.8836l-0.00004,0.00039zm11.389,-3.2703c-0.93763,0.3659 -1.9667,0.54886 -3.1102,0.54886c-1.3493,0 -2.4012,-0.48025 -3.1102,-1.4179c-0.70894,-0.91476 -1.0748,-2.1954 -1.0748,-3.842c0,-0.86903 0.13721,-2.1497 0.38877,-3.842c0.48025,-2.8586 1.2807,-4.9626 2.4241,-6.289c1.1663,-1.3493 2.9044,-2.0125 5.2828,-2.0125c0.93763,0 1.8066,0.11435 2.6528,0.34304c0.82328,0.20582 1.4636,0.45738 1.8981,0.70894l-2.264,14.247c-1.1206,0.66321 -2.1497,1.1892 -3.0873,1.5551l-0.00007,0.00046z" id="svg_71"/>
     </g>
    </g>
   </g>
   <g stroke="null" id="svg_62">
    <g stroke="null" transform="matrix(0.92607,0,0,0.92607,-1334,-1225.9) " id="svg_66">
     <title>Project Slogan BG</title>
     <rect stroke="null" x="18938.9271" y="12615.716406" width="442" height="52" fill="none" id="svg_67"/>
    </g>
    <g stroke="null" transform="matrix(0.92607,0,0,0.92607,-1334,-1225.9) " id="svg_63">
     <title>Project Slogan</title>
     <g stroke="null" fill="#ffffff" id="svg_64">
      <path stroke="null" d="m18966.0271,12632.31641l-0.82275,-2.2189c-1.3214,-0.4737 -2.7425,-0.69809 -4.2882,-0.69809c-0.99727,0 -1.8948,0.09973 -2.7674,0.34905c-0.84767,0.22438 -1.6206,0.52356 -2.3186,0.9474c-0.72302,0.39891 -1.3463,0.87261 -1.8948,1.446c-0.5485,0.54849 -0.99727,1.1469 -1.3962,1.82c-0.37397,0.64822 -0.64822,1.3463 -0.84767,2.0943c-0.19946,0.72302 -0.29918,1.471 -0.29918,2.2438c0,1.3214 0.24931,2.543 0.74795,3.64c0.49863,1.097 1.1718,2.0444 2.0693,2.8173c0.87261,0.79782 1.9197,1.3962 3.1414,1.82c1.2216,0.42384 2.5929,0.64823 4.0639,0.64823c0.72302,0 1.446,-0.0748 2.169,-0.19946c0.72302,-0.12465 1.3962,-0.29918 1.9945,-0.52356l0.9474,-2.4433l-0.12465,-0.07479c-0.29918,0.34904 -0.64823,0.64822 -1.0222,0.89754c-0.34905,0.27425 -0.74795,0.49863 -1.1718,0.69809c-0.42384,0.17452 -0.84768,0.32411 -1.3214,0.42384c-0.44877,0.09972 -0.89754,0.14959 -1.3463,0.14959c-1.2715,0 -2.3685,-0.22439 -3.3159,-0.67316c-0.9474,-0.44877 -1.7452,-1.0471 -2.3685,-1.82s-1.097,-1.6954 -1.4211,-2.7425c-0.32412,-1.0721 -0.47371,-2.2189 -0.47371,-3.4406c0,-1.097 0.14959,-2.0943 0.49864,-2.9669c0.32411,-0.84768 0.79781,-1.5956 1.3962,-2.194s1.3214,-1.0471 2.1691,-1.3712c0.84768,-0.32412 1.7702,-0.47371 2.7674,-0.47371c1.0471,0 1.9945,0.17453 2.8671,0.52357s1.6206,0.79781 2.2438,1.3712l0.12466,-0.04986l0.00001,0.00012zm2.8422,6.9559l0,2.8921c0,0.67315 -0.02493,1.2715 -0.04986,1.7951c-0.02494,0.49863 -0.02494,0.92247 -0.0748,1.2964c-0.02493,0.37397 -0.04986,0.67315 -0.09973,0.92247c-0.04986,0.24931 -0.09972,0.44877 -0.12465,0.62329l0,0.04986l2.7674,0l0,-0.04986c-0.04986,-0.17452 -0.09972,-0.37398 -0.14959,-0.62329c-0.02493,-0.24932 -0.07479,-0.5485 -0.09972,-0.92247c-0.02494,-0.37398 -0.04987,-0.79782 -0.0748,-1.2964c-0.02493,-0.52357 -0.02493,-1.1219 -0.02493,-1.7951l0,-3.0915l0,-0.84768c0,-0.27425 0,-0.52357 0.02493,-0.74795c0.27425,-0.22439 0.52357,-0.44877 0.82275,-0.64823c0.27425,-0.19945 0.5485,-0.3989 0.82274,-0.54849c0.27425,-0.14959 0.57343,-0.27425 0.82275,-0.34905c0.27425,-0.09972 0.5485,-0.14959 0.79781,-0.14959c0.44877,0 0.79782,0.12466 1.0721,0.32412c0.24931,0.22438 0.44877,0.49863 0.52356,0.84767l0.22439,0.04986l0.57343,-2.2937c-0.09973,-0.04986 -0.19946,-0.0748 -0.29918,-0.12466c-0.09973,-0.04986 -0.22439,-0.07479 -0.34905,-0.12466c-0.12466,-0.02493 -0.27425,-0.04986 -0.42384,-0.07479s-0.34904,-0.02493 -0.57343,-0.02493c-0.34904,0 -0.69808,0.04986 -1.0471,0.14959c-0.34904,0.12465 -0.67315,0.27425 -1.0222,0.44877c-0.32411,0.19945 -0.64822,0.3989 -0.97233,0.64822c-0.32411,0.22439 -0.62329,0.4737 -0.92247,0.72302c0.02493,-0.42384 0.04986,-0.74795 0.09972,-1.0222c0.04987,-0.24932 0.09973,-0.4737 0.17453,-0.67316l0,-0.04986l-2.7674,0l0,0.04986c0.02493,0.17453 0.07479,0.37398 0.12466,0.6233c0.04986,0.24931 0.07479,0.54849 0.09972,0.92247c0.04987,0.37397 0.04987,0.79781 0.0748,1.3214c0.02493,0.49863 0.04986,1.097 0.04986,1.7702l-0.00007,-0.00013zm14.959,7.8036c0.84768,0 1.5707,-0.0748 2.1691,-0.24932c0.59836,-0.14959 1.097,-0.34904 1.5458,-0.57343l0.87261,-2.1192l-0.14959,-0.0748c-0.17452,0.29918 -0.3989,0.59836 -0.67315,0.84768c-0.24932,0.24932 -0.5485,0.4737 -0.89754,0.67315c-0.32412,0.19946 -0.69809,0.34905 -1.097,0.44877c-0.42384,0.09973 -0.84767,0.17453 -1.3214,0.17453c-0.67315,0 -1.2715,-0.14959 -1.7951,-0.39891c-0.5485,-0.24932 -0.99727,-0.62329 -1.3712,-1.097c-0.34905,-0.47371 -0.64823,-1.0471 -0.87261,-1.7203c-0.19945,-0.67316 -0.32411,-1.4211 -0.37398,-2.2438c0.52357,-0.02493 1.1219,-0.02493 1.7702,-0.02493c0.67316,-0.02494 1.3463,-0.02494 2.0444,-0.02494c0.97234,0 1.8948,0 2.7924,0.02494c0.92247,0 1.82,0 2.7176,0.02493c-0.02494,-1.0222 -0.19946,-1.9197 -0.49864,-2.7176c-0.29918,-0.79781 -0.69809,-1.446 -1.2216,-1.9945c-0.49864,-0.52357 -1.1219,-0.94741 -1.82,-1.2216c-0.69809,-0.29918 -1.471,-0.42384 -2.2937,-0.42384s-1.5956,0.14959 -2.2937,0.4737c-0.72302,0.32411 -1.3463,0.74795 -1.8948,1.3214c-0.52357,0.57343 -0.94741,1.2466 -1.2466,2.0195c-0.29918,0.74796 -0.44877,1.5956 -0.44877,2.4932c0,1.0222 0.14959,1.9447 0.49864,2.7176c0.32411,0.79781 0.77288,1.471 1.3463,2.0195c0.57343,0.52357 1.2466,0.94741 2.0195,1.2217c0.77288,0.27425 1.6206,0.42384 2.4932,0.42384l-0.00001,0l-0.00036,-0.00027zm-1.5956,-7.305l-1.2466,0c-0.39891,0 -0.77288,-0.02493 -1.1219,-0.02493c0.02494,-0.72302 0.12466,-1.3463 0.29918,-1.8948c0.17453,-0.57343 0.42384,-1.0222 0.69809,-1.4211c0.29918,-0.37398 0.62329,-0.67316 1.0222,-0.87261c0.37398,-0.19946 0.79781,-0.29918 1.2715,-0.29918c0.49863,0 0.97233,0.09972 1.3962,0.29918c0.42384,0.19945 0.79782,0.49863 1.097,0.89754c0.32411,0.37397 0.57342,0.84767 0.77288,1.3962c0.19945,0.5485 0.32411,1.1718 0.3989,1.8699c-0.64822,0.02493 -1.3712,0.02493 -2.169,0.02493c-0.82275,0.02493 -1.6206,0.02493 -2.4184,0.02493l-0.00005,-0.00006zm8.5765,3.5403c0,1.1967 0.37397,2.1192 1.1219,2.7924c0.77288,0.64822 1.845,0.97234 3.2162,0.97234c0.42384,0 0.82275,-0.04987 1.1718,-0.12466c0.37397,-0.0748 0.69809,-0.17452 0.97233,-0.29918c0.29918,-0.12466 0.5485,-0.24932 0.77289,-0.39891c0.24931,-0.17452 0.42384,-0.29918 0.59836,-0.44877c0,0.22439 -0.02493,0.39891 -0.04986,0.57343c-0.02494,0.14959 -0.04987,0.29918 -0.09973,0.42384l0,0.04986l2.6677,0l0,-0.04986c-0.04986,-0.17452 -0.09973,-0.37397 -0.14959,-0.62329s-0.0748,-0.5485 -0.09973,-0.92247c-0.02493,-0.37398 -0.04986,-0.79782 -0.07479,-1.2964c-0.02493,-0.52357 -0.02493,-1.1219 -0.02493,-1.7951l0,-3.8894c0,-0.54849 -0.09973,-1.0471 -0.27425,-1.5458c-0.17453,-0.4737 -0.44877,-0.87261 -0.82275,-1.2217c-0.39891,-0.37397 -0.87261,-0.64822 -1.471,-0.84767c-0.59836,-0.19946 -1.2964,-0.29918 -2.1441,-0.29918c-0.29918,0 -0.59836,0 -0.8726,0.02493c-0.27425,0.02493 -0.5485,0.04986 -0.79782,0.09973c-0.27425,0.04986 -0.52356,0.09972 -0.79781,0.17452c-0.24932,0.07479 -0.49864,0.17452 -0.77288,0.29918l-0.79782,1.6954l0.09973,0.0748c0.39891,-0.29918 0.74795,-0.5485 1.0721,-0.74795c0.34905,-0.17452 0.64823,-0.32411 0.94741,-0.44877c0.29918,-0.09973 0.59836,-0.17452 0.8726,-0.22439c0.27425,-0.04986 0.57343,-0.07479 0.84768,-0.07479c0.42384,0 0.79782,0.04986 1.1469,0.17452s0.64822,0.32411 0.89754,0.57343s0.42384,0.57343 0.57343,0.9474c0.12466,0.37398 0.19945,0.84768 0.19945,1.3712l0,0.59836c-0.4737,0 -0.99726,0.04986 -1.5707,0.07479c-0.57343,0.04987 -1.1718,0.12466 -1.7452,0.24932c-0.59836,0.12466 -1.1718,0.27425 -1.7203,0.4737c-0.54849,0.19946 -1.0471,0.4737 -1.471,0.79782c-0.42383,0.32411 -0.77288,0.72301 -1.0471,1.1967c-0.24931,0.44877 -0.37397,0.99726 -0.37397,1.6206l0,-0.00001l-0.00009,0.00003zm7.9283,-3.4655l0,2.3186l0,1.2715c0,0.37398 0,0.69809 -0.02493,0.99727c-0.07479,0.19945 -0.22438,0.37397 -0.37397,0.57343c-0.17453,0.19945 -0.37398,0.37397 -0.6233,0.54849c-0.24931,0.14959 -0.52356,0.29918 -0.84767,0.39891c-0.29918,0.12466 -0.64823,0.17452 -1.0471,0.17452c-0.82275,0 -1.471,-0.24931 -1.9447,-0.74795c-0.4737,-0.49863 -0.69808,-1.2216 -0.69808,-2.1441c0,-0.74795 0.14959,-1.3463 0.44877,-1.7702c0.32411,-0.44877 0.72302,-0.79782 1.2466,-1.0222c0.49863,-0.24932 1.097,-0.39891 1.7702,-0.4737c0.67316,-0.0748 1.3712,-0.12466 2.0943,-0.12466l-0.00012,0.00009zm10.023,6.3077c-0.22438,0 -0.44877,-0.04986 -0.67315,-0.09972c-0.19946,-0.0748 -0.39891,-0.19946 -0.57343,-0.37398c-0.17453,-0.17452 -0.32412,-0.39891 -0.42384,-0.72302c-0.09973,-0.29918 -0.14959,-0.69808 -0.14959,-1.1967l0,-8.2275c0.52356,0 1.0222,0 1.5208,0.02494c0.49863,0 0.92247,0 1.3214,0.02493c0.44877,0.02493 0.87261,0.02493 1.2715,0.04986l0.22438,-1.2216c-0.09973,0 -0.27425,0.02493 -0.5485,0.04986s-0.62329,0.02493 -0.99726,0.04986c-0.39891,0.02494 -0.84768,0.04987 -1.3214,0.04987c-0.49864,0.02493 -0.97234,0.02493 -1.471,0.02493c0,-0.57343 0,-1.0721 0.02493,-1.4959c0.02493,-0.44877 0.04986,-0.82275 0.07479,-1.1469c0.02494,-0.32411 0.0748,-0.59836 0.09973,-0.79781c0.04986,-0.22439 0.09973,-0.42384 0.12466,-0.57343l0,-0.04987l-2.7425,0l0,0.04987c0.02493,0.14959 0.0748,0.34904 0.09973,0.57343c0.04986,0.19945 0.07479,0.4737 0.09973,0.79781c0.04986,0.32411 0.04986,0.72302 0.07479,1.1469s0.04986,0.9474 0.04986,1.4959l-1.1219,0c-0.34905,-0.02493 -0.64823,-0.02493 -0.89754,-0.04986l0,1.0721l2.0195,-0.0748l0,7.9781c0,1.2217 0.29918,2.1441 0.89755,2.7176c0.59836,0.57343 1.4211,0.87261 2.4932,0.87261c0.34905,0 0.67316,-0.02493 0.92248,-0.0748c0.27425,-0.04986 0.49863,-0.09972 0.69808,-0.14959c0.19946,-0.07479 0.34905,-0.12466 0.49864,-0.19945c0.14959,-0.0748 0.24931,-0.12466 0.34904,-0.17452l0.77288,-1.9197l-0.09972,-0.0748c-0.17453,0.22439 -0.37398,0.42384 -0.57343,0.62329c-0.19946,0.19946 -0.42384,0.37398 -0.64823,0.52357c-0.19945,0.14959 -0.44877,0.27425 -0.67315,0.34904c-0.22439,0.09973 -0.4737,0.14959 -0.72302,0.14959l-0.00001,-0.00011zm10.446,0.92248c0.84768,0 1.5707,-0.0748 2.1691,-0.24932c0.59836,-0.14959 1.097,-0.34905 1.5458,-0.57343l0.87261,-2.1192l-0.14959,-0.0748c-0.17452,0.29918 -0.39891,0.59836 -0.67316,0.84768c-0.24931,0.24931 -0.54849,0.4737 -0.89754,0.67315c-0.32411,0.19946 -0.69808,0.34905 -1.097,0.44877c-0.42384,0.09973 -0.84768,0.17453 -1.3214,0.17453c-0.67316,0 -1.2715,-0.14959 -1.7951,-0.39891c-0.5485,-0.24932 -0.99727,-0.62329 -1.3712,-1.097c-0.34904,-0.4737 -0.64822,-1.0471 -0.8726,-1.7203c-0.19946,-0.67316 -0.32412,-1.4211 -0.37398,-2.2438c0.52357,-0.02494 1.1219,-0.02494 1.7702,-0.02494c0.64822,-0.02493 1.3463,-0.02493 2.0195,-0.02493c0.99727,0 1.9197,0 2.8173,0.02493c0.89754,0 1.82,0 2.7176,0.02494c-0.02493,-1.0222 -0.19945,-1.9197 -0.49863,-2.7176c-0.29918,-0.79781 -0.69809,-1.446 -1.2216,-1.9945c-0.49864,-0.52357 -1.1219,-0.94741 -1.82,-1.2217c-0.69808,-0.29918 -1.471,-0.42383 -2.2937,-0.42383c-0.82275,0 -1.5956,0.14959 -2.2937,0.4737c-0.72302,0.32411 -1.3463,0.74795 -1.8948,1.3214c-0.52356,0.57343 -0.9474,1.2466 -1.2466,2.0195c-0.29918,0.74795 -0.44877,1.5956 -0.44877,2.4932c0,1.0222 0.14959,1.9447 0.49863,2.7176c0.32412,0.79781 0.77289,1.471 1.3463,2.0195c0.57343,0.52357 1.2466,0.94741 2.0195,1.2217c0.77289,0.27425 1.6206,0.42384 2.4932,0.42384l-0.00037,-0.00018zm-1.5956,-7.305l-1.2466,0c-0.39891,0 -0.77289,-0.02493 -1.1219,-0.02493c0.02493,-0.72302 0.12466,-1.3463 0.29918,-1.8948c0.17452,-0.57343 0.42384,-1.0222 0.69809,-1.4211c0.29918,-0.37397 0.62329,-0.67315 1.0222,-0.8726c0.37397,-0.19946 0.79781,-0.29918 1.2715,-0.29918c0.49864,0 0.97234,0.09972 1.3962,0.29918c0.42384,0.19945 0.79781,0.49863 1.097,0.89754c0.32411,0.37397 0.57343,0.84767 0.77288,1.3962c0.19946,0.5485 0.32412,1.1718 0.39891,1.8699c-0.64822,0.02493 -1.3712,0.02493 -2.1691,0.02493c-0.82274,0.02493 -1.6206,0.02493 -2.4184,0.02493l0.00004,-0.00007zm16.879,-0.49863l0,2.8921c0,0.67316 0,1.2715 -0.02493,1.7951c-0.02493,0.49863 -0.04986,0.92247 -0.07479,1.2964c-0.02494,0.37398 -0.0748,0.67316 -0.09973,0.92248c-0.04986,0.24931 -0.09973,0.44876 -0.14959,0.62329l0,0.04986l2.7674,0l0,-0.04986c-0.04987,-0.17453 -0.09973,-0.37398 -0.12466,-0.62329c-0.04986,-0.24932 -0.0748,-0.5485 -0.12466,-0.92248c-0.02493,-0.37397 -0.04986,-0.79781 -0.07479,-1.2964c0,-0.52357 -0.02494,-1.1219 -0.02494,-1.7951l0,-3.0915l0,-0.84767c0,-0.27425 0.02494,-0.52357 0.02494,-0.74795c0.27424,-0.22439 0.54849,-0.44877 0.82274,-0.64823c0.27425,-0.19945 0.57343,-0.39891 0.84768,-0.5485s0.5485,-0.27424 0.82274,-0.34904c0.27425,-0.09973 0.52357,-0.14959 0.77289,-0.14959c0.44877,0 0.82274,0.12466 1.0721,0.32411c0.27425,0.22439 0.44877,0.49864 0.5485,0.84768l0.19945,0.04986l0.59836,-2.2937c-0.09972,-0.04987 -0.19945,-0.0748 -0.29918,-0.12466c-0.12466,-0.04986 -0.22438,-0.0748 -0.34904,-0.12466c-0.12466,-0.02493 -0.27425,-0.04986 -0.44877,-0.07479c-0.14959,-0.02494 -0.34905,-0.02494 -0.5485,-0.02494c-0.34904,0 -0.69809,0.04987 -1.0471,0.14959c-0.34904,0.12466 -0.69809,0.27425 -1.0222,0.44877c-0.34904,0.19946 -0.67316,0.39891 -0.99727,0.64823c-0.29918,0.22438 -0.62329,0.4737 -0.92247,0.72302c0.02493,-0.42384 0.0748,-0.74795 0.09973,-1.0222c0.04986,-0.24932 0.09973,-0.4737 0.17452,-0.67316l0,-0.04986l-2.7674,0l0,0.04986c0.04987,0.17452 0.09973,0.37398 0.14959,0.62329c0.02494,0.24932 0.0748,0.5485 0.09973,0.92248c0.02493,0.37397 0.04986,0.79781 0.0748,1.3214c0.02493,0.49863 0.02493,1.097 0.02493,1.7702l-0.00001,0l-0.00007,-0.00014zm14.984,7.8036c0.82274,0 1.5458,-0.07479 2.1441,-0.24931c0.59836,-0.14959 1.1219,-0.34905 1.5458,-0.57343l0.89754,-2.1192l-0.14959,-0.07479c-0.19945,0.29918 -0.42384,0.59836 -0.67316,0.84768c-0.27425,0.24931 -0.57343,0.4737 -0.89754,0.67315c-0.34904,0.19946 -0.72302,0.34905 -1.1219,0.44877c-0.39891,0.09973 -0.84768,0.17452 -1.3214,0.17452c-0.64823,0 -1.2715,-0.14959 -1.7951,-0.3989c-0.52357,-0.24932 -0.97234,-0.62329 -1.3463,-1.097c-0.37397,-0.4737 -0.67315,-1.0471 -0.8726,-1.7203c-0.22439,-0.67316 -0.34905,-1.4211 -0.39891,-2.2438c0.52356,-0.02494 1.1219,-0.02494 1.7951,-0.02494c0.64822,-0.02493 1.3214,-0.02493 2.0195,-0.02493c0.97233,0 1.9197,0 2.8173,0.02493c0.89754,0 1.7951,0 2.6926,0.02494c-0.02493,-1.0222 -0.17452,-1.9197 -0.4737,-2.7176c-0.29918,-0.79781 -0.69809,-1.446 -1.2216,-1.9945c-0.52357,-0.52357 -1.1219,-0.94741 -1.82,-1.2217c-0.72302,-0.29918 -1.471,-0.42384 -2.2937,-0.42384c-0.82275,0 -1.5956,0.14959 -2.3186,0.47371c-0.72302,0.32411 -1.3463,0.74795 -1.8699,1.3214c-0.54849,0.57342 -0.9474,1.2466 -1.2715,2.0195c-0.29918,0.74795 -0.44877,1.5956 -0.44877,2.4932c0,1.0222 0.17452,1.9447 0.49863,2.7176c0.32411,0.79781 0.79782,1.471 1.3712,2.0195c0.57343,0.52357 1.2466,0.94741 2.0195,1.2217c0.77288,0.27424 1.5956,0.42383 2.4932,0.42383l-0.0002,-0.00019zm-1.5956,-7.305l-1.2466,0c-0.39891,0 -0.77289,-0.02493 -1.1469,-0.02493c0.04986,-0.72302 0.14959,-1.3463 0.32411,-1.8948c0.17452,-0.57343 0.39891,-1.0222 0.69809,-1.4211c0.27425,-0.37397 0.62329,-0.67315 0.99727,-0.87261c0.3989,-0.19945 0.82274,-0.29918 1.2715,-0.29918c0.52357,0 0.97234,0.09973 1.3962,0.29918c0.42384,0.19946 0.79781,0.49864 1.1219,0.89755c0.29918,0.37397 0.5485,0.84767 0.74795,1.3962c0.19946,0.5485 0.34905,1.1718 0.42384,1.8699c-0.67315,0.02493 -1.3962,0.02493 -2.194,0.02493c-0.79781,0.02493 -1.5956,0.02493 -2.3934,0.02493l0.00004,-0.00007zm9.5239,-0.74795l0,9.2746c0,0.67315 -0.02494,1.2715 -0.04987,1.7702c0,0.52356 -0.02493,0.9474 -0.07479,1.3214c-0.02493,0.37397 -0.04987,0.67315 -0.09973,0.92247c-0.04986,0.24931 -0.07479,0.44877 -0.12466,0.62329l0,0.04986l2.7674,0l0,-0.04986c-0.04986,-0.17452 -0.09973,-0.37398 -0.14959,-0.62329c-0.02493,-0.24932 -0.0748,-0.5485 -0.09973,-0.92247c-0.02493,-0.37398 -0.04986,-0.79782 -0.07479,-1.3214c-0.02493,-0.49864 -0.02493,-1.097 -0.02493,-1.7702l0,-1.7452c0.42383,0.14959 0.89754,0.27425 1.4211,0.37397c0.49864,0.09973 1.0721,0.14959 1.6954,0.14959c1.0471,0 1.9447,-0.17452 2.7425,-0.52356c0.79782,-0.34905 1.471,-0.82275 2.0195,-1.3962c0.5485,-0.59836 0.97234,-1.2466 1.2466,-2.0195c0.29918,-0.74795 0.42384,-1.5458 0.42384,-2.3685c0,-0.97234 -0.12465,-1.8699 -0.42384,-2.6677c-0.29918,-0.77289 -0.69808,-1.446 -1.2216,-2.0195c-0.52356,-0.5485 -1.1469,-0.97234 -1.8699,-1.2715s-1.5458,-0.44877 -2.4184,-0.44877c-0.69809,0 -1.3463,0.0748 -1.8948,0.27425c-0.57343,0.17452 -1.097,0.42384 -1.5707,0.69809c0.02493,-0.19946 0.04986,-0.37398 0.07479,-0.52357c0.04986,-0.14959 0.0748,-0.29918 0.12466,-0.3989l0,-0.04987l-2.7674,0l0,0.04987c0.04986,0.14959 0.0748,0.37397 0.12466,0.62329c0.04986,0.22438 0.07479,0.5485 0.09973,0.92247c0.04986,0.34904 0.07479,0.79781 0.07479,1.2964c0.02493,0.49863 0.04986,1.097 0.04986,1.7702l0.00001,0l-0.00011,0.00004zm5.2606,-3.7647c0.72302,0 1.3463,0.14959 1.845,0.44877c0.49863,0.29918 0.89754,0.72302 1.2216,1.2715c0.32411,0.52356 0.5485,1.1718 0.69809,1.8948c0.12465,0.74795 0.19945,1.5458 0.19945,2.4184c0,0.74795 -0.09973,1.446 -0.27425,2.0444c-0.19945,0.62329 -0.44877,1.1219 -0.79781,1.5458c-0.34905,0.42384 -0.77288,0.74796 -1.2715,0.97234c-0.52356,0.22439 -1.0721,0.34904 -1.6954,0.34904c-0.37398,0 -0.72302,-0.02493 -1.0471,-0.07479c-0.32412,-0.04986 -0.59837,-0.12466 -0.84768,-0.19945c-0.24932,-0.09973 -0.4737,-0.17453 -0.67316,-0.27425c-0.19945,-0.12466 -0.37397,-0.22439 -0.54849,-0.34905l0,-6.2828c0,-0.44877 0,-0.87261 0.02493,-1.2466c0,-0.37397 0,-0.72302 0.02493,-1.0222c0.19945,-0.24931 0.42384,-0.44877 0.67316,-0.64822c0.24931,-0.17452 0.52356,-0.34904 0.79781,-0.4737s0.5485,-0.22439 0.82275,-0.27425c0.29918,-0.0748 0.57342,-0.09973 0.84767,-0.09973l0,-0.00001zm8.0529,5.4351c0,0.99727 0.14959,1.8699 0.49863,2.6677c0.34904,0.77288 0.82275,1.446 1.3962,1.9945c0.59836,0.54849 1.2964,0.97233 2.0693,1.2715c0.79781,0.29918 1.6455,0.44877 2.543,0.44877c1.0471,0 1.9696,-0.17452 2.7924,-0.52356c0.79781,-0.34905 1.4959,-0.82275 2.0444,-1.3962c0.57343,-0.59836 0.99727,-1.2466 1.2715,-2.0195c0.29918,-0.74795 0.42384,-1.5458 0.42384,-2.3685c0,-0.97234 -0.14959,-1.8699 -0.49863,-2.6677c-0.34905,-0.77289 -0.79782,-1.446 -1.3962,-1.9945s-1.2715,-0.97234 -2.0693,-1.2715s-1.6455,-0.44877 -2.543,-0.44877c-0.92247,0 -1.7951,0.14959 -2.5929,0.47371c-0.79781,0.32411 -1.471,0.74795 -2.0693,1.3214c-0.57343,0.57342 -1.0471,1.2466 -1.3712,2.0195c-0.34904,0.74795 -0.49863,1.5956 -0.49863,2.4932l-0.00011,-0.00005zm6.7814,5.5099c-0.72302,0 -1.3712,-0.17452 -1.9197,-0.4737c-0.5485,-0.29918 -0.99727,-0.72302 -1.3712,-1.2715c-0.37397,-0.5485 -0.64822,-1.1967 -0.82274,-1.9447c-0.19946,-0.74795 -0.27425,-1.5458 -0.27425,-2.3934c0,-0.77288 0.07479,-1.471 0.27425,-2.0693c0.19945,-0.59836 0.4737,-1.097 0.79781,-1.5208c0.34904,-0.42384 0.77288,-0.72302 1.2466,-0.9474c0.47371,-0.22439 0.97234,-0.32412 1.5458,-0.32412c0.74795,0 1.3712,0.14959 1.9197,0.44877c0.57343,0.29918 1.0222,0.72302 1.3712,1.2715c0.37398,0.52356 0.64823,1.1718 0.82275,1.8948c0.19945,0.74795 0.27425,1.5458 0.27425,2.4184c0,0.74795 -0.0748,1.446 -0.27425,2.0444c-0.19946,0.62329 -0.4737,1.1219 -0.79782,1.5458c-0.34904,0.42384 -0.74795,0.74796 -1.2466,0.97234c-0.4737,0.22439 -0.97234,0.34904 -1.5458,0.34904l0,-0.00013zm8.9505,-6.931l0,2.8921c0,0.67316 0,1.2715 -0.02493,1.7951c-0.02493,0.49864 -0.04986,0.92248 -0.0748,1.2964c-0.02493,0.37398 -0.07479,0.67316 -0.09972,0.92247c-0.04987,0.24932 -0.09973,0.44877 -0.14959,0.6233l0,0.04986l2.7674,0l0,-0.04986c-0.04986,-0.17453 -0.09972,-0.37398 -0.12465,-0.6233c-0.04987,-0.24931 -0.0748,-0.54849 -0.12466,-0.92247c-0.02493,-0.37397 -0.04986,-0.79781 -0.0748,-1.2964l0,-1.7951l0,-3.0915l0,-0.84767l0,-0.74796c0.27425,-0.22438 0.5485,-0.44877 0.82275,-0.64822s0.57343,-0.39891 0.84768,-0.5485s0.54849,-0.27425 0.82274,-0.34904c0.27425,-0.09973 0.52357,-0.14959 0.77288,-0.14959c0.44877,0 0.82275,0.12466 1.0721,0.32411c0.27425,0.22439 0.44877,0.49864 0.54849,0.84768l0.19946,0.04986l0.59836,-2.2937c-0.09973,-0.04987 -0.19945,-0.0748 -0.29918,-0.12466c-0.12466,-0.04986 -0.22439,-0.0748 -0.34904,-0.12466c-0.12466,-0.02493 -0.27425,-0.04986 -0.44877,-0.07479c-0.14959,-0.02494 -0.34905,-0.02494 -0.5485,-0.02494c-0.34905,0 -0.69809,0.04987 -1.0471,0.14959c-0.34905,0.12466 -0.69809,0.27425 -1.0222,0.44877c-0.34905,0.19946 -0.67316,0.39891 -0.99727,0.64823c-0.29918,0.22438 -0.62329,0.4737 -0.92247,0.72302c0.02493,-0.42384 0.07479,-0.74795 0.09973,-1.0222c0.04986,-0.24932 0.09972,-0.4737 0.17452,-0.67316l0,-0.04986l-2.7674,0l0,0.04986c0.04986,0.17452 0.09973,0.37398 0.14959,0.62329c0.02493,0.24932 0.0748,0.5485 0.09973,0.92248c0.02493,0.37397 0.04986,0.79781 0.07479,1.3214c0.02493,0.49864 0.02493,1.097 0.02493,1.7702l0,0.00001l-0.00007,-0.00015zm13.937,6.8811c-0.22439,0 -0.44877,-0.04986 -0.67316,-0.09973c-0.22439,-0.07479 -0.39891,-0.19945 -0.57343,-0.37397s-0.32411,-0.39891 -0.42384,-0.72302c-0.09973,-0.29918 -0.17452,-0.69809 -0.17452,-1.1967l0,-8.2275c0.5485,0 1.0471,0 1.5458,0.02493c0.49864,0 0.92248,0 1.3214,0.02494c0.44877,0.02493 0.87261,0.02493 1.2715,0.04986l0.22438,-1.2216c-0.09972,0 -0.27424,0.02493 -0.54849,0.04986s-0.62329,0.02493 -0.99727,0.04986c-0.39891,0.02493 -0.84768,0.04987 -1.3214,0.04987c-0.49863,0.02493 -0.97234,0.02493 -1.4959,0.02493c0.02493,-0.57343 0.02493,-1.0721 0.04986,-1.4959c0.02493,-0.44877 0.04987,-0.82275 0.0748,-1.1469s0.04986,-0.59836 0.09972,-0.79782c0.04987,-0.22438 0.0748,-0.42383 0.12466,-0.57342l0,-0.04987l-2.7674,0l0,0.04987c0.04986,0.14959 0.09972,0.34904 0.12465,0.57342c0.04987,0.19946 0.0748,0.47371 0.09973,0.79782s0.04986,0.72302 0.0748,1.1469c0.02493,0.42384 0.04986,0.9474 0.04986,1.4959l-1.1219,0c-0.34904,-0.02493 -0.64822,-0.02493 -0.89754,-0.04987l0,1.0721l2.0195,-0.0748l0,7.9781c0,1.2217 0.29918,2.1441 0.89754,2.7176s1.4211,0.87261 2.4932,0.87261c0.34904,0 0.67315,-0.02494 0.92247,-0.0748c0.27425,-0.04986 0.49863,-0.09973 0.69809,-0.14959c0.19945,-0.07479 0.34904,-0.12466 0.49863,-0.19945c0.14959,-0.0748 0.24932,-0.12466 0.34905,-0.17453l0.77288,-1.9197l-0.09973,-0.07479c-0.17452,0.22438 -0.37397,0.42384 -0.57343,0.62329c-0.19945,0.19946 -0.42384,0.37398 -0.64822,0.52357c-0.19946,0.14959 -0.44877,0.27425 -0.67316,0.34904c-0.22438,0.09973 -0.4737,0.14959 -0.72302,0.14959l0.00001,0l-0.00012,-0.0001zm10.496,-9.1499l-0.12466,-1.9945c-0.22439,-0.12466 -0.57343,-0.24932 -0.99727,-0.39891c-0.44877,-0.14959 -0.99727,-0.19945 -1.6704,-0.19945c-0.49864,0 -0.97234,0.07479 -1.3962,0.22438c-0.3989,0.14959 -0.77288,0.34904 -1.0721,0.62329c-0.32411,0.27425 -0.5485,0.62329 -0.72302,0.99727c-0.17452,0.39891 -0.27425,0.82275 -0.27425,1.2715c0,0.57343 0.12466,1.0721 0.37398,1.5208c0.22438,0.44877 0.52356,0.84768 0.87261,1.2216c0.37397,0.37398 0.74795,0.72302 1.1718,1.0471c0.39891,0.32412 0.79782,0.64823 1.1469,0.99727c0.34905,0.32411 0.64823,0.64823 0.89754,1.0222c0.22439,0.34904 0.34905,0.72302 0.34905,1.1469c0,0.5485 -0.17452,0.97233 -0.52357,1.2964c-0.34904,0.32411 -0.82274,0.4737 -1.3962,0.4737c-0.37398,0 -0.69809,-0.04986 -0.99727,-0.17452s-0.57343,-0.29918 -0.82275,-0.52357c-0.22438,-0.19945 -0.42384,-0.4737 -0.57343,-0.79781c-0.17452,-0.29918 -0.29918,-0.64823 -0.37397,-1.0222l-0.17452,0l-0.12466,2.2688c0.14959,0.12466 0.34904,0.24932 0.57343,0.39891c0.22438,0.12466 0.4737,0.24932 0.74795,0.34904c0.27425,0.09973 0.57343,0.19946 0.89754,0.27425c0.34904,0.0748 0.69809,0.09973 1.0721,0.09973c0.64823,0 1.2217,-0.09973 1.6704,-0.27425c0.4737,-0.19945 0.84767,-0.44877 1.1468,-0.74795s0.52357,-0.64822 0.67316,-1.0222c0.14959,-0.39891 0.22439,-0.79781 0.22439,-1.1967c0,-0.49863 -0.12466,-0.97234 -0.37398,-1.4211c-0.24932,-0.42384 -0.5485,-0.82274 -0.92247,-1.2216c-0.34905,-0.37397 -0.74795,-0.74795 -1.1967,-1.097c-0.42384,-0.34905 -0.82275,-0.69809 -1.1718,-1.0471c-0.37398,-0.34905 -0.67316,-0.69809 -0.92247,-1.0471c-0.24932,-0.34904 -0.37398,-0.72301 -0.37398,-1.1219c0,-0.27425 0.04986,-0.52357 0.14959,-0.72302c0.09973,-0.22439 0.22439,-0.39891 0.39891,-0.52357c0.14959,-0.14959 0.34904,-0.24931 0.57343,-0.32411c0.22438,-0.07479 0.44877,-0.09972 0.69808,-0.09972c0.34905,0 0.67316,0.04986 0.94741,0.17452c0.27425,0.09972 0.49863,0.24931 0.69809,0.42384c0.19945,0.17452 0.37397,0.37397 0.49863,0.57343c0.09973,0.22438 0.19945,0.3989 0.24932,0.59836l0.17452,-0.02494l0.00004,-0.00007zm9.6735,6.3077c0,1.1967 0.37398,2.1192 1.1219,2.7924c0.77288,0.64822 1.8449,0.97233 3.2162,0.97233c0.42383,0 0.82274,-0.04986 1.1718,-0.12465c0.34905,-0.0748 0.67316,-0.17453 0.97234,-0.29918c0.29918,-0.12466 0.5485,-0.24932 0.77288,-0.39891c0.22439,-0.17452 0.42384,-0.29918 0.59836,-0.44877c-0.02493,0.22438 -0.02493,0.39891 -0.04986,0.57343c-0.02493,0.14959 -0.04986,0.29918 -0.09973,0.42384l0,0.04986l2.6428,0l0,-0.04986c-0.02493,-0.17453 -0.07479,-0.37398 -0.12466,-0.6233c-0.04986,-0.24931 -0.07479,-0.54849 -0.09972,-0.92247c-0.04987,-0.37397 -0.0748,-0.79781 -0.0748,-1.2964c-0.02493,-0.52356 -0.04986,-1.1219 -0.04986,-1.7951l0,-3.8893c0,-0.5485 -0.0748,-1.0471 -0.24932,-1.5458c-0.17452,-0.4737 -0.44877,-0.8726 -0.82274,-1.2216c-0.39891,-0.37397 -0.87261,-0.64822 -1.471,-0.84768c-0.59836,-0.19945 -1.3214,-0.29918 -2.1441,-0.29918c-0.29918,0 -0.59836,0 -0.87261,0.02494c-0.27425,0.02493 -0.54849,0.04986 -0.79781,0.09972c-0.27425,0.04987 -0.52357,0.09973 -0.79782,0.17453c-0.24931,0.07479 -0.49863,0.17452 -0.77288,0.29918l-0.82274,1.6954l0.12465,0.0748c0.39891,-0.29918 0.74796,-0.5485 1.0721,-0.74796c0.34904,-0.17452 0.64822,-0.32411 0.9474,-0.44877c0.29918,-0.09972 0.59836,-0.17452 0.87261,-0.22438s0.57343,-0.0748 0.84768,-0.0748c0.42384,0 0.79781,0.04987 1.1469,0.17453c0.34904,0.12465 0.64822,0.32411 0.89754,0.57343c0.24931,0.24931 0.42384,0.57342 0.57343,0.9474c0.12465,0.37397 0.19945,0.84768 0.19945,1.3712l0,0.59836c-0.4737,0 -0.99727,0.04987 -1.5707,0.0748c-0.57343,0.04986 -1.1718,0.12466 -1.7702,0.24932c-0.57343,0.12465 -1.1468,0.27424 -1.6954,0.4737c-0.5485,0.19945 -1.0471,0.4737 -1.471,0.79781c-0.44877,0.32411 -0.77288,0.72302 -1.0471,1.1967c-0.24932,0.44877 -0.37398,0.99727 -0.37398,1.6206l-0.00001,-0.00017zm7.9283,-3.4655l0,2.3186l0,1.2715c0,0.37397 0,0.69808 -0.02493,0.99726c-0.09973,0.19946 -0.22439,0.37398 -0.37398,0.57343c-0.17452,0.19946 -0.37397,0.37398 -0.62329,0.5485c-0.24932,0.14959 -0.52357,0.29918 -0.84768,0.39891c-0.29918,0.12466 -0.64822,0.17452 -1.0471,0.17452c-0.82274,0 -1.471,-0.24932 -1.9447,-0.74795c-0.4737,-0.49864 -0.69809,-1.2216 -0.69809,-2.1441c0,-0.74795 0.14959,-1.3463 0.44877,-1.7702c0.29918,-0.44877 0.72302,-0.79781 1.2466,-1.0222c0.49863,-0.24931 1.097,-0.3989 1.7702,-0.4737c0.67315,-0.07479 1.3712,-0.12466 2.0943,-0.12466l-0.0001,0.00009zm13.937,-1.0721l0,3.3907c0,0.67316 -0.02493,1.2715 -0.02493,1.7951c-0.02493,0.49864 -0.04986,0.92247 -0.07479,1.2964c-0.02494,0.37398 -0.0748,0.67316 -0.12466,0.92247c-0.02493,0.24932 -0.0748,0.44877 -0.12466,0.62329l0,0.04987l2.7674,0l0,-0.04987c-0.04987,-0.17452 -0.09973,-0.37397 -0.12466,-0.62329c-0.04986,-0.24931 -0.0748,-0.54849 -0.12466,-0.92247c-0.02493,-0.37397 -0.04986,-0.79781 -0.07479,-1.2964c0,-0.52356 -0.02494,-1.1219 -0.02494,-1.7951l0,-4.0639c0,-0.47371 -0.04986,-0.92248 -0.17452,-1.3712s-0.32411,-0.84767 -0.59836,-1.1967c-0.27425,-0.34904 -0.62329,-0.64822 -1.0721,-0.84768c-0.42384,-0.22438 -0.94741,-0.32411 -1.5707,-0.32411c-0.42384,0 -0.82274,0.04987 -1.2466,0.19946c-0.42384,0.12465 -0.84768,0.29918 -1.2466,0.49863c-0.42384,0.22439 -0.79781,0.44877 -1.1967,0.72302c-0.37397,0.27425 -0.72302,0.5485 -1.0471,0.82275c0.04986,-0.49864 0.0748,-0.89755 0.12466,-1.1967c0.02493,-0.32411 0.07479,-0.57342 0.14959,-0.77288l0,-0.04986l-2.7674,0l0,0.04986c0.04987,0.17452 0.0748,0.37398 0.12466,0.62329c0.04986,0.24932 0.0748,0.5485 0.09973,0.92248c0.04986,0.37397 0.07479,0.79781 0.07479,1.3214c0.02493,0.49863 0.04987,1.097 0.04987,1.7702l0,2.8921c0,0.67316 -0.02494,1.2715 -0.04987,1.7951c0,0.49864 -0.02493,0.92248 -0.07479,1.2964c-0.02493,0.37398 -0.04987,0.67316 -0.09973,0.92247c-0.04986,0.24932 -0.07479,0.44877 -0.12466,0.6233l0,0.04986l2.7674,0l0,-0.04986c-0.04986,-0.17453 -0.09973,-0.37398 -0.14959,-0.6233c-0.02493,-0.24931 -0.0748,-0.54849 -0.09973,-0.92247c-0.02493,-0.37397 -0.04986,-0.79781 -0.07479,-1.2964c-0.02493,-0.52356 -0.02493,-1.1219 -0.02493,-1.7951l0,-2.8921l0.02493,-1.5707c0.29918,-0.27425 0.62329,-0.52357 0.9474,-0.77288c0.32411,-0.22439 0.67316,-0.44877 0.99727,-0.62329c0.34904,-0.17453 0.67316,-0.32412 0.99727,-0.42384c0.29918,-0.09973 0.59836,-0.17453 0.84767,-0.17453c0.72302,0 1.2715,0.24932 1.6954,0.74796c0.42384,0.49863 0.64822,1.2715 0.64822,2.3186l0,-0.00008zm11.144,-4.388c-0.94741,0 -1.82,0.14959 -2.5929,0.47371c-0.79781,0.32411 -1.471,0.74795 -2.0444,1.3214c-0.57343,0.57343 -1.0222,1.2466 -1.3463,2.0195c-0.32411,0.74795 -0.4737,1.5956 -0.4737,2.4932c0,0.99727 0.14959,1.8699 0.42384,2.6677c0.29918,0.77288 0.72302,1.446 1.2715,1.9945c0.54849,0.54849 1.1967,0.97233 1.9945,1.2715c0.77288,0.29918 1.6206,0.44877 2.568,0.44877c0.82275,0 1.5458,-0.12466 2.1441,-0.32411c0.62329,-0.19945 1.1219,-0.42384 1.5458,-0.69809c-0.02493,0.19946 -0.04986,0.34905 -0.07479,0.47371c0,0.12465 -0.02493,0.22438 -0.04986,0.27424l0,0.04987l2.6428,0l0,-0.04987c-0.04987,-0.17452 -0.09973,-0.37397 -0.14959,-0.62329c-0.02494,-0.24931 -0.0748,-0.54849 -0.09973,-0.92247c-0.02493,-0.37397 -0.04986,-0.79781 -0.0748,-1.2964c-0.02493,-0.52356 -0.02493,-1.1219 -0.02493,-1.7951l0,-8.5266c0,-0.67315 0,-1.2715 0.02493,-1.7702c0.02494,-0.52356 0.04987,-0.9474 0.0748,-1.3214c0.02493,-0.37397 0.07479,-0.67315 0.09973,-0.92247c0.04986,-0.24931 0.09972,-0.44877 0.14959,-0.62329l0,-0.04986l-2.7674,0l0,0.04986c0.04986,0.17452 0.09973,0.37398 0.12466,0.62329c0.04986,0.24932 0.07479,0.5485 0.12465,0.92247c0.02494,0.37398 0.04987,0.79782 0.0748,1.3214c0,0.49864 0.02493,1.097 0.02493,1.7702l0,1.9696c-0.22438,-0.19946 -0.49863,-0.37398 -0.77288,-0.52357s-0.57343,-0.27425 -0.87261,-0.37397c-0.32411,-0.12466 -0.64822,-0.19946 -0.97234,-0.24932c-0.32411,-0.04986 -0.64822,-0.0748 -0.97233,-0.0748l-0.00007,-0.00011zm3.5902,3.3159l0,4.4628c0,0.52357 -0.02493,1.0222 -0.02493,1.446c0,0.44877 -0.02493,0.84768 -0.02493,1.1718c-0.14959,0.17452 -0.32412,0.32411 -0.52357,0.49863c-0.19945,0.14959 -0.44877,0.29918 -0.72302,0.44877c-0.27425,0.12466 -0.57343,0.24932 -0.89754,0.32411c-0.32411,0.09973 -0.67315,0.14959 -1.0471,0.14959c-0.72302,0 -1.3463,-0.17452 -1.8948,-0.4737c-0.57343,-0.29918 -1.0222,-0.72302 -1.3962,-1.2715c-0.37398,-0.5485 -0.64823,-1.1967 -0.84768,-1.9447c-0.17452,-0.74795 -0.27425,-1.5458 -0.27425,-2.3934c0,-0.77288 0.09973,-1.471 0.29918,-2.0693c0.22439,-0.59836 0.52357,-1.097 0.89754,-1.5208c0.37398,-0.42384 0.82275,-0.72302 1.3463,-0.94741c0.52357,-0.22438 1.097,-0.32411 1.7203,-0.32411c0.74795,0 1.4211,0.19946 2.0195,0.59836c0.57343,0.39891 1.0471,1.0222 1.3712,1.845l0,-0.00014zm21.092,1.0721l0,3.3907c0,0.67316 0,1.2715 -0.02493,1.7951c0,0.49864 -0.02494,0.92248 -0.0748,1.2964c-0.02493,0.37398 -0.04986,0.67316 -0.09973,0.92247c-0.04986,0.24932 -0.07479,0.44877 -0.12465,0.6233l0,0.04986l2.7674,0l0,-0.04986c-0.04986,-0.17453 -0.09972,-0.37398 -0.14959,-0.6233c-0.04986,-0.24931 -0.07479,-0.54849 -0.09972,-0.92247c-0.02494,-0.37397 -0.04987,-0.79781 -0.0748,-1.2964c-0.02493,-0.52356 -0.02493,-1.1219 -0.02493,-1.7951l0,-4.0639l0,-0.27425c0,-0.09973 -0.02493,-0.19946 -0.02493,-0.29918c0.27425,-0.24932 0.57343,-0.4737 0.89754,-0.69809c0.32411,-0.19945 0.62329,-0.39891 0.9474,-0.57343s0.62329,-0.29918 0.92247,-0.39891c0.29918,-0.09972 0.57343,-0.14959 0.82275,-0.14959c0.72302,0 1.2715,0.24932 1.6954,0.74796c0.42383,0.49863 0.64822,1.2715 0.64822,2.3186l0,3.3907c0,0.67316 0,1.2715 -0.02493,1.7951c-0.02493,0.49864 -0.04987,0.92248 -0.0748,1.2964c-0.02493,0.37398 -0.07479,0.67316 -0.12466,0.92247c-0.02493,0.24932 -0.07479,0.44877 -0.12465,0.6233l0,0.04986l2.7674,0l0,-0.04986c-0.04986,-0.17453 -0.07479,-0.37398 -0.12465,-0.6233c-0.04987,-0.24931 -0.0748,-0.54849 -0.12466,-0.92247c-0.02493,-0.37397 -0.04987,-0.79781 -0.0748,-1.2964c0,-0.52356 -0.02493,-1.1219 -0.02493,-1.7951l0,-4.0639c0,-0.4737 -0.04986,-0.92247 -0.17452,-1.3712c-0.12466,-0.44877 -0.32411,-0.84767 -0.59836,-1.1967c-0.27425,-0.34904 -0.62329,-0.64822 -1.0721,-0.84767c-0.42383,-0.22439 -0.9474,-0.32412 -1.5707,-0.32412c-0.42384,0 -0.82275,0.04987 -1.2715,0.19946c-0.42384,0.12466 -0.82274,0.29918 -1.2466,0.52356c-0.39891,0.22439 -0.79782,0.44877 -1.1967,0.74795c-0.39891,0.27425 -0.74795,0.5485 -1.0721,0.82275c-0.09972,-0.32411 -0.22438,-0.62329 -0.42383,-0.89754c-0.17453,-0.27425 -0.39891,-0.52357 -0.64823,-0.72302c-0.27425,-0.22438 -0.57343,-0.37397 -0.92247,-0.49863s-0.74795,-0.17453 -1.2216,-0.17453c-0.37398,0 -0.77289,0.04987 -1.1469,0.17453c-0.39891,0.12465 -0.79782,0.27425 -1.1718,0.4737c-0.39891,0.17452 -0.77288,0.39891 -1.1219,0.64822c-0.37397,0.24932 -0.72302,0.49864 -1.0471,0.74795c0.04987,-0.42384 0.0748,-0.77288 0.12466,-1.0721c0.02493,-0.27425 0.0748,-0.49863 0.14959,-0.69809l0,-0.04986l-2.7674,0l0,0.04986c0.04987,0.17453 0.09973,0.37398 0.12466,0.6233c0.04986,0.24931 0.09973,0.54849 0.12466,0.92247c0.02493,0.37397 0.04986,0.79781 0.07479,1.3214c0,0.49863 0.02494,1.097 0.02494,1.7702l0,2.8921c0,0.67316 -0.02494,1.2715 -0.02494,1.7951c-0.02493,0.49864 -0.04986,0.92248 -0.07479,1.2964c-0.02493,0.37398 -0.0748,0.67316 -0.12466,0.92247c-0.02493,0.24932 -0.07479,0.44877 -0.12466,0.6233l0,0.04986l2.7674,0l0,-0.04986c-0.04986,-0.17453 -0.09973,-0.37398 -0.12466,-0.6233c-0.04986,-0.24931 -0.07479,-0.54849 -0.12466,-0.92247c-0.02493,-0.37397 -0.04986,-0.79781 -0.07479,-1.2964c0,-0.52356 -0.02493,-1.1219 -0.02493,-1.7951l0,-2.8921l0,-0.94741c0,-0.27425 0.02493,-0.54849 0.02493,-0.82274c0.29918,-0.22439 0.57343,-0.47371 0.89754,-0.67316c0.32411,-0.22438 0.62329,-0.42384 0.9474,-0.57343c0.32412,-0.17452 0.6233,-0.29918 0.92248,-0.39891c0.29918,-0.09972 0.54849,-0.14959 0.79781,-0.14959c0.34904,0 0.67316,0.0748 0.9474,0.19946c0.29918,0.12466 0.5485,0.29918 0.74796,0.5485c0.19945,0.27424 0.34904,0.57342 0.4737,0.97233c0.09972,0.37398 0.14959,0.82275 0.14959,1.3463l-0.00003,0.00005zm12.74,4.5376c0,1.1967 0.37398,2.1192 1.1219,2.7924c0.77288,0.64822 1.8449,0.97233 3.2162,0.97233c0.42383,0 0.82274,-0.04986 1.1718,-0.12465c0.34905,-0.0748 0.67316,-0.17453 0.97234,-0.29918c0.29918,-0.12466 0.5485,-0.24932 0.77288,-0.39891c0.22439,-0.17452 0.42384,-0.29918 0.59836,-0.44877c-0.02493,0.22438 -0.02493,0.39891 -0.04986,0.57343c-0.02493,0.14959 -0.04986,0.29918 -0.09973,0.42384l0,0.04986l2.6428,0l0,-0.04986c-0.04986,-0.17453 -0.07479,-0.37398 -0.12466,-0.6233c-0.04986,-0.24931 -0.07479,-0.54849 -0.09972,-0.92247c-0.04987,-0.37397 -0.0748,-0.79781 -0.0748,-1.2964c-0.02493,-0.52356 -0.04986,-1.1219 -0.04986,-1.7951l0,-3.8893c0,-0.5485 -0.0748,-1.0471 -0.24932,-1.5458c-0.17452,-0.4737 -0.44877,-0.8726 -0.82274,-1.2216c-0.39891,-0.37397 -0.87261,-0.64822 -1.471,-0.84768c-0.59836,-0.19945 -1.3214,-0.29918 -2.1441,-0.29918c-0.29918,0 -0.59836,0 -0.87261,0.02494c-0.27425,0.02493 -0.54849,0.04986 -0.79781,0.09972c-0.27425,0.04987 -0.52357,0.09973 -0.79782,0.17453c-0.24931,0.07479 -0.49863,0.17452 -0.77288,0.29918l-0.82274,1.6954l0.12465,0.0748c0.39891,-0.29918 0.74796,-0.5485 1.0721,-0.74796c0.34904,-0.17452 0.64822,-0.32411 0.9474,-0.44877c0.29918,-0.09972 0.59836,-0.17452 0.87261,-0.22438s0.57343,-0.0748 0.84768,-0.0748c0.42384,0 0.79781,0.04987 1.1469,0.17453c0.34904,0.12465 0.64822,0.32411 0.89754,0.57343c0.24931,0.24931 0.42384,0.57342 0.57343,0.9474c0.12465,0.37397 0.19945,0.84768 0.19945,1.3712l0,0.59836c-0.4737,0 -0.99727,0.04987 -1.5707,0.0748c-0.59836,0.04986 -1.1718,0.12466 -1.7702,0.24932c-0.57343,0.12465 -1.1468,0.27424 -1.6954,0.4737c-0.5485,0.19945 -1.0471,0.4737 -1.471,0.79781c-0.44877,0.32411 -0.77288,0.72302 -1.0471,1.1967c-0.24932,0.44877 -0.37398,0.99727 -0.37398,1.6206l-0.00001,-0.00017zm7.9283,-3.4655l0,2.3186l0,1.2715c0,0.37397 0,0.69808 -0.02493,0.99726c-0.09973,0.19946 -0.22439,0.37398 -0.37398,0.57343c-0.17452,0.19946 -0.37397,0.37398 -0.62329,0.5485c-0.24932,0.14959 -0.52357,0.29918 -0.84768,0.39891c-0.29918,0.12466 -0.64822,0.17452 -1.0471,0.17452c-0.82274,0 -1.471,-0.24932 -1.9447,-0.74795c-0.4737,-0.49864 -0.69809,-1.2216 -0.69809,-2.1441c0,-0.74795 0.14959,-1.3463 0.44877,-1.7702c0.29918,-0.44877 0.72302,-0.79781 1.2466,-1.0222c0.49863,-0.24931 1.097,-0.3989 1.7702,-0.4737c0.67315,-0.07479 1.3712,-0.12466 2.0943,-0.12466l-0.0001,0.00009zm13.937,-1.0721l0,3.3907c0,0.67316 -0.02493,1.2715 -0.02493,1.7951c-0.02493,0.49864 -0.04986,0.92247 -0.07479,1.2964c-0.02494,0.37398 -0.0748,0.67316 -0.12466,0.92247c-0.02493,0.24932 -0.0748,0.44877 -0.12466,0.62329l0,0.04987l2.7674,0l0,-0.04987c-0.04987,-0.17452 -0.09973,-0.37397 -0.12466,-0.62329c-0.04986,-0.24931 -0.0748,-0.54849 -0.12466,-0.92247c-0.02493,-0.37397 -0.04986,-0.79781 -0.07479,-1.2964c0,-0.52356 -0.02494,-1.1219 -0.02494,-1.7951l0,-4.0639c0,-0.47371 -0.04986,-0.92248 -0.17452,-1.3712s-0.32411,-0.84767 -0.59836,-1.1967c-0.27425,-0.34904 -0.62329,-0.64822 -1.0721,-0.84768c-0.42384,-0.22438 -0.94741,-0.32411 -1.5707,-0.32411c-0.42384,0 -0.82274,0.04987 -1.2466,0.19946c-0.42384,0.12465 -0.84768,0.29918 -1.2466,0.49863c-0.42384,0.22439 -0.79781,0.44877 -1.1967,0.72302c-0.37397,0.27425 -0.72302,0.5485 -1.0471,0.82275c0.04986,-0.49864 0.0748,-0.89755 0.12466,-1.1967c0.02493,-0.32411 0.07479,-0.57342 0.14959,-0.77288l0,-0.04986l-2.7674,0l0,0.04986c0.04987,0.17452 0.0748,0.37398 0.12466,0.62329c0.04986,0.24932 0.0748,0.5485 0.09973,0.92248c0.04986,0.37397 0.07479,0.79781 0.07479,1.3214c0.02493,0.49863 0.04987,1.097 0.04987,1.7702l0,2.8921c0,0.67316 -0.02494,1.2715 -0.04987,1.7951c0,0.49864 -0.02493,0.92248 -0.07479,1.2964c-0.02493,0.37398 -0.04987,0.67316 -0.09973,0.92247c-0.04986,0.24932 -0.07479,0.44877 -0.12466,0.6233l0,0.04986l2.7674,0l0,-0.04986c-0.04986,-0.17453 -0.09973,-0.37398 -0.14959,-0.6233c-0.02493,-0.24931 -0.0748,-0.54849 -0.09973,-0.92247c-0.02493,-0.37397 -0.04986,-0.79781 -0.07479,-1.2964c-0.02493,-0.52356 -0.02493,-1.1219 -0.02493,-1.7951l0,-2.8921l0.02493,-1.5707c0.29918,-0.27425 0.62329,-0.52357 0.9474,-0.77288c0.32411,-0.22439 0.67316,-0.44877 0.99727,-0.62329c0.34904,-0.17453 0.67316,-0.32412 0.99727,-0.42384c0.29918,-0.09973 0.59836,-0.17453 0.84767,-0.17453c0.72302,0 1.2715,0.24932 1.6954,0.74796c0.42384,0.49863 0.64822,1.2715 0.64822,2.3186l0,-0.00008zm4.737,4.5376c0,1.1967 0.37398,2.1192 1.1219,2.7924c0.77288,0.64822 1.8449,0.97233 3.2162,0.97233c0.42384,0 0.82274,-0.04986 1.1718,-0.12466c0.34904,-0.07479 0.67315,-0.17452 0.97233,-0.29918c0.29918,-0.12465 0.5485,-0.24931 0.77288,-0.3989c0.22439,-0.17452 0.42384,-0.29918 0.59837,-0.44877c-0.02494,0.22438 -0.02494,0.3989 -0.04987,0.57343c-0.02493,0.14959 -0.04986,0.29918 -0.09972,0.42384l0,0.04986l2.6428,0l0,-0.04986c-0.04986,-0.17453 -0.07479,-0.37398 -0.12465,-0.6233c-0.04987,-0.24931 -0.0748,-0.54849 -0.09973,-0.92247c-0.04986,-0.37397 -0.0748,-0.79781 -0.0748,-1.2964c-0.02493,-0.52356 -0.04986,-1.1219 -0.04986,-1.7951l0,-3.8893c0,-0.5485 -0.07479,-1.0471 -0.24932,-1.5458c-0.17452,-0.4737 -0.44877,-0.87261 -0.82274,-1.2216c-0.39891,-0.37397 -0.87261,-0.64822 -1.471,-0.84768c-0.59836,-0.19945 -1.3214,-0.29918 -2.1441,-0.29918c-0.29918,0 -0.59836,0 -0.87261,0.02494c-0.27424,0.02493 -0.54849,0.04986 -0.79781,0.09972c-0.27425,0.04987 -0.52356,0.09973 -0.79781,0.17452c-0.24932,0.0748 -0.49864,0.17453 -0.77289,0.29918l-0.82274,1.6954l0.12466,0.07479c0.3989,-0.29918 0.74795,-0.54849 1.0721,-0.74795c0.34904,-0.17452 0.64822,-0.32411 0.9474,-0.44877c0.29918,-0.09972 0.59836,-0.17452 0.87261,-0.22438s0.57343,-0.0748 0.84768,-0.0748c0.42384,0 0.79781,0.04987 1.1469,0.17453c0.34904,0.12465 0.64822,0.32411 0.89754,0.57342c0.24932,0.24932 0.42384,0.57343 0.57343,0.94741c0.12466,0.37397 0.19945,0.84768 0.19945,1.3712l0,0.59836c-0.4737,0 -0.99727,0.04987 -1.5707,0.0748c-0.59837,0.04986 -1.1718,0.12466 -1.7702,0.24931c-0.57343,0.12466 -1.1469,0.27425 -1.6954,0.47371c-0.5485,0.19945 -1.0471,0.4737 -1.471,0.79781c-0.44877,0.32411 -0.77288,0.72302 -1.0471,1.1967c-0.24932,0.44877 -0.37398,0.99727 -0.37398,1.6206l-0.00002,-0.00016zm7.9283,-3.4655l0,2.3186l0,1.2715c0,0.37397 0,0.69808 -0.02493,0.99726c-0.09973,0.19946 -0.22439,0.37398 -0.37398,0.57343c-0.17452,0.19946 -0.37397,0.37398 -0.62329,0.5485c-0.24932,0.14959 -0.52356,0.29918 -0.84768,0.39891c-0.29918,0.12465 -0.64822,0.17452 -1.0471,0.17452c-0.82274,0 -1.471,-0.24932 -1.9447,-0.74795c-0.4737,-0.49864 -0.69809,-1.2217 -0.69809,-2.1441c0,-0.74795 0.14959,-1.3463 0.44877,-1.7702c0.29918,-0.44877 0.72302,-0.79781 1.2466,-1.0222c0.49863,-0.24931 1.097,-0.3989 1.7702,-0.4737c0.67315,-0.07479 1.3712,-0.12466 2.0943,-0.12466l-0.0001,0.00009zm10.322,12.466c-0.34904,0 -0.74795,-0.04987 -1.1469,-0.14959c-0.42384,-0.09973 -0.84768,-0.27425 -1.2216,-0.47371c-0.39891,-0.22438 -0.74795,-0.4737 -1.097,-0.79781c-0.32411,-0.32411 -0.57342,-0.67316 -0.77288,-1.097l-0.19945,0.04986l0.37397,2.2937c0.17453,0.09973 0.42384,0.22439 0.69809,0.34905c0.29918,0.12466 0.64822,0.24932 0.99727,0.34904c0.37397,0.09973 0.77288,0.19946 1.1718,0.27425c0.3989,0.0748 0.79781,0.09973 1.1967,0.09973c1.1469,0 2.0943,-0.14959 2.8671,-0.4737c0.77288,-0.32412 1.3962,-0.77289 1.845,-1.3214c0.4737,-0.52357 0.79781,-1.1469 0.99727,-1.845c0.19945,-0.69808 0.29918,-1.4211 0.29918,-2.1441l0,-8.1527c0,-0.67316 0,-1.2715 0.02493,-1.7702c0.02493,-0.52357 0.04986,-0.94741 0.07479,-1.3214c0.02493,-0.37398 0.0748,-0.67316 0.09973,-0.92248c0.04986,-0.24931 0.09973,-0.44877 0.14959,-0.62329l0,-0.04986l-2.6428,0l0,0.04986l0.12466,0.89754c-0.24932,-0.17452 -0.4737,-0.32411 -0.72302,-0.44877c-0.24932,-0.14959 -0.49863,-0.27425 -0.77288,-0.37397c-0.27425,-0.09973 -0.57343,-0.19946 -0.89754,-0.24932c-0.32412,-0.07479 -0.67316,-0.09973 -1.0471,-0.09973c-0.89755,0 -1.7203,0.14959 -2.4433,0.47371c-0.74795,0.32411 -1.3962,0.77288 -1.9197,1.3463c-0.52356,0.54849 -0.9474,1.2216 -1.2216,1.9945c-0.29918,0.77288 -0.44877,1.6206 -0.44877,2.5181c0,0.99727 0.14959,1.8699 0.44877,2.6677c0.29918,0.77289 0.72302,1.446 1.2715,1.9945c0.5485,0.5485 1.1967,0.97234 1.9696,1.2715c0.77288,0.29918 1.6455,0.44877 2.5929,0.44877c0.69809,0 1.3214,-0.0748 1.8699,-0.22439s1.0222,-0.32411 1.3962,-0.5485l0,0.39891l0,1.471c-0.02493,0.4737 -0.07479,0.89754 -0.14959,1.3214c-0.07479,0.42384 -0.17452,0.79781 -0.34904,1.1469c-0.14959,0.34904 -0.37397,0.64822 -0.64822,0.89754c-0.29918,0.24932 -0.67316,0.42384 -1.1219,0.57343s-0.99727,0.19945 -1.6455,0.19945l-0.00016,0.00018zm1.1718,-6.1083c-0.69809,0 -1.3463,-0.17452 -1.8948,-0.4737s-1.0222,-0.72302 -1.3712,-1.2715c-0.37398,-0.54849 -0.67316,-1.1967 -0.84768,-1.9447c-0.19945,-0.74795 -0.29918,-1.5458 -0.29918,-2.3934c0,-0.77288 0.09973,-1.471 0.27425,-2.0693s0.44877,-1.097 0.77288,-1.5208c0.34905,-0.42384 0.74795,-0.74795 1.2466,-0.97234c0.4737,-0.22438 1.0222,-0.32411 1.6455,-0.32411c0.27425,0 0.57343,0.02493 0.87261,0.12466c0.29918,0.07479 0.57342,0.19945 0.8726,0.34904c0.27425,0.14959 0.5485,0.34905 0.79782,0.57343c0.24932,0.22439 0.4737,0.49863 0.64822,0.79781c0,0.29918 0.02493,0.6233 0.02493,0.97234l0,1.2216l0,5.9587c-0.29918,0.24931 -0.69808,0.4737 -1.1718,0.67315c-0.47371,0.19946 -0.99727,0.29918 -1.5707,0.29918l-0.00005,-0.00006zm13.887,0.87261c0.84768,0 1.5458,-0.07479 2.1441,-0.24932c0.59836,-0.14959 1.1219,-0.34904 1.5458,-0.57342l0.89754,-2.1192l-0.14959,-0.07479c-0.17452,0.29918 -0.39891,0.59836 -0.67316,0.84767c-0.24931,0.24932 -0.54849,0.47371 -0.89754,0.67316c-0.32411,0.19945 -0.69808,0.34904 -1.1219,0.44877c-0.39891,0.09973 -0.84768,0.17452 -1.2964,0.17452c-0.67316,0 -1.2715,-0.14959 -1.82,-0.39891c-0.52357,-0.24931 -0.97234,-0.62329 -1.3463,-1.097c-0.37397,-0.4737 -0.64822,-1.0471 -0.8726,-1.7203c-0.19946,-0.67315 -0.34905,-1.4211 -0.37398,-2.2438c0.52357,-0.02493 1.097,-0.02493 1.7702,-0.02493c0.64822,-0.02493 1.3214,-0.02493 2.0195,-0.02493c0.97233,0 1.9197,0 2.8173,0.02493c0.89754,0 1.7951,0 2.7176,0.02493c-0.02493,-1.0222 -0.19945,-1.9197 -0.49863,-2.7176c-0.29918,-0.79782 -0.69809,-1.446 -1.2216,-1.9945c-0.49864,-0.52356 -1.1219,-0.9474 -1.82,-1.2216c-0.69808,-0.29918 -1.471,-0.42384 -2.2937,-0.42384c-0.82275,0 -1.5956,0.14959 -2.3186,0.4737c-0.69809,0.32412 -1.3214,0.74795 -1.8699,1.3214c-0.52356,0.57343 -0.9474,1.2466 -1.2466,2.0195c-0.29918,0.74795 -0.4737,1.5956 -0.4737,2.4932c0,1.0222 0.17452,1.9447 0.49863,2.7176c0.34905,0.79782 0.79782,1.471 1.3712,2.0195c0.57343,0.52356 1.2466,0.9474 2.0195,1.2216s1.5956,0.42384 2.4932,0.42384l-0.00037,-0.00018zm-1.5956,-7.305l-1.2466,0c-0.39891,0 -0.77289,-0.02494 -1.1219,-0.02494c0.02493,-0.72301 0.12466,-1.3463 0.29918,-1.8948c0.17452,-0.57343 0.39891,-1.0222 0.69809,-1.4211c0.27425,-0.37397 0.62329,-0.67316 0.99727,-0.87261c0.3989,-0.19945 0.82274,-0.29918 1.2964,-0.29918c0.49864,0 0.97234,0.09973 1.3962,0.29918c0.42384,0.19946 0.77288,0.49864 1.097,0.89754c0.29918,0.37398 0.57343,0.84768 0.77288,1.3962c0.19946,0.54849 0.32412,1.1718 0.39891,1.8699c-0.64822,0.02494 -1.3712,0.02494 -2.194,0.02494c-0.79781,0.02493 -1.5956,0.02493 -2.3934,0.02493l-0.00003,-0.00006zm19.172,4.6124l0,-9.9976c0,-0.69809 0,-1.2715 0.02493,-1.7951c0,-0.49863 0.02493,-0.9474 0.0748,-1.2964c0.02493,-0.37397 0.07479,-0.69809 0.09972,-0.9474c0.04987,-0.24932 0.09973,-0.44877 0.14959,-0.62329l0,-0.04987l-2.8671,0l0,0.04987c0.02493,0.17452 0.07479,0.37397 0.12466,0.62329c0.04986,0.24931 0.07479,0.57343 0.12465,0.9474c0.02494,0.34905 0.04987,0.79782 0.0748,1.2964l0,1.7951l0,9.9976c0,0.84768 0,1.6206 -0.04986,2.3186c-0.04987,0.72301 -0.17453,1.3962 -0.34905,2.0195c-0.14959,0.59836 -0.3989,1.1967 -0.72302,1.7452c-0.32411,0.52357 -0.77288,1.0471 -1.3214,1.5458l0.22439,0.29918c0.62329,-0.44877 1.2216,-0.92248 1.7702,-1.3962c0.52356,-0.4737 0.99727,-1.0222 1.3962,-1.6455c0.39891,-0.59836 0.69809,-1.2964 0.92248,-2.0943c0.19945,-0.79782 0.32411,-1.7203 0.32411,-2.7924l-0.0001,0.00012zm3.8644,-5.111l0,2.8921c0,0.67315 0,1.2715 -0.02493,1.7951c-0.02493,0.49864 -0.04986,0.92247 -0.0748,1.2964c-0.02493,0.37397 -0.04986,0.67316 -0.09972,0.92247c-0.04987,0.24932 -0.09973,0.44877 -0.12466,0.62329l0,0.04987l2.7425,0l0,-0.04987c-0.02493,-0.17452 -0.07479,-0.37397 -0.12465,-0.62329c-0.02494,-0.24932 -0.0748,-0.5485 -0.09973,-0.92247c-0.02493,-0.37398 -0.04986,-0.79781 -0.0748,-1.2964c-0.02493,-0.52356 -0.02493,-1.1219 -0.02493,-1.7951l0,-2.8921c0,-0.67315 0,-1.2715 0.02493,-1.7702c0.02494,-0.52356 0.04987,-0.9474 0.0748,-1.3214c0.02493,-0.37397 0.07479,-0.67315 0.09973,-0.92247c0.04986,-0.24932 0.09972,-0.44877 0.12465,-0.62329l0,-0.04986l-2.7425,0l0,0.04986c0.02493,0.17452 0.07479,0.37397 0.12466,0.62329c0.04986,0.24932 0.07479,0.5485 0.09972,0.92247c0.02494,0.37398 0.04987,0.79782 0.0748,1.3214c0.02493,0.49864 0.02493,1.097 0.02493,1.7702zm-0.24932,-8.3022c0,0.17452 0.04987,0.34904 0.09973,0.49863c0.0748,0.14959 0.17452,0.29918 0.27425,0.42384c0.12466,0.09973 0.24932,0.19946 0.39891,0.27425c0.17452,0.04987 0.32411,0.09973 0.52356,0.09973c0.34905,0 0.67316,-0.12466 0.92247,-0.37397c0.24932,-0.24932 0.37398,-0.5485 0.37398,-0.92248c0,-0.17452 -0.04986,-0.34904 -0.09973,-0.49863c-0.07479,-0.14959 -0.17452,-0.29918 -0.29918,-0.39891c-0.09973,-0.12466 -0.24932,-0.22438 -0.39891,-0.29918c-0.14959,-0.04986 -0.32411,-0.09972 -0.49863,-0.09972c-0.19945,0 -0.34904,0.04986 -0.52356,0.09972c-0.14959,0.0748 -0.27425,0.17452 -0.39891,0.29918c-0.09973,0.09973 -0.19946,0.24932 -0.27425,0.39891c-0.04986,0.14959 -0.09973,0.32411 -0.09973,0.49863zm6.1083,8.3022l0,2.8921c0,0.67315 -0.02493,1.2715 -0.02493,1.7951c-0.02494,0.49864 -0.04987,0.92247 -0.0748,1.2964c-0.02493,0.37397 -0.07479,0.67316 -0.12466,0.92247c-0.02493,0.24932 -0.07479,0.44877 -0.12466,0.62329l0,0.04987l2.7674,0l0,-0.04987c-0.04986,-0.17452 -0.09973,-0.37397 -0.12466,-0.62329c-0.04986,-0.24932 -0.09972,-0.5485 -0.12465,-0.92247c-0.02494,-0.37398 -0.04987,-0.79781 -0.0748,-1.2964c0,-0.52356 -0.02493,-1.1219 -0.02493,-1.7951l0,-3.0915l0,-0.84768c0,-0.27425 0.02493,-0.52356 0.02493,-0.74795c0.27425,-0.22438 0.5485,-0.44877 0.82275,-0.64822c0.27425,-0.19946 0.54849,-0.39891 0.84767,-0.5485c0.27425,-0.14959 0.5485,-0.27425 0.82275,-0.34904c0.27425,-0.09973 0.52356,-0.14959 0.77288,-0.14959c0.44877,0 0.82275,0.12465 1.0721,0.32411c0.27425,0.22438 0.44877,0.49863 0.5485,0.84768l0.19946,0.04986l0.57342,-2.2937c-0.07479,-0.04986 -0.17452,-0.07479 -0.29918,-0.12465c-0.09972,-0.04987 -0.19945,-0.0748 -0.32411,-0.12466c-0.14959,-0.02493 -0.27425,-0.04987 -0.44877,-0.0748c-0.14959,-0.02493 -0.34904,-0.02493 -0.54849,-0.02493c-0.34905,0 -0.69809,0.04986 -1.0471,0.14959c-0.34904,0.12466 -0.69808,0.27425 -1.0222,0.44877c-0.34905,0.19945 -0.67316,0.39891 -0.99727,0.64822c-0.32411,0.22439 -0.62329,0.47371 -0.92247,0.72302c0.02493,-0.42384 0.07479,-0.74795 0.09972,-1.0222c0.04987,-0.24931 0.09973,-0.4737 0.17452,-0.67315l0,-0.04986l-2.7674,0l0,0.04986c0.04986,0.17452 0.09972,0.37397 0.12466,0.62329c0.04986,0.24932 0.09972,0.5485 0.12465,0.92247c0.02494,0.37398 0.04987,0.79782 0.0748,1.3214c0,0.49864 0.02493,1.097 0.02493,1.7702l-0.00006,-0.00014zm8.1527,4.0389c0,1.1967 0.37397,2.1192 1.1469,2.7924c0.74795,0.64822 1.82,0.97233 3.2162,0.97233c0.42383,0 0.82274,-0.04986 1.1718,-0.12466c0.34905,-0.07479 0.67316,-0.17452 0.97234,-0.29918c0.27425,-0.12465 0.5485,-0.24931 0.77288,-0.3989c0.22439,-0.17453 0.42384,-0.29918 0.59836,-0.44877c-0.02493,0.22438 -0.04986,0.3989 -0.04986,0.57343c-0.02493,0.14959 -0.04986,0.29918 -0.09973,0.42384l0,0.04986l2.6428,0l0,-0.04986c-0.04986,-0.17453 -0.09972,-0.37398 -0.12466,-0.6233c-0.04986,-0.24931 -0.09972,-0.54849 -0.12465,-0.92247c-0.02494,-0.37397 -0.04987,-0.79781 -0.0748,-1.2964c0,-0.52356 -0.02493,-1.1219 -0.02493,-1.7951l0,-3.8893c0,-0.5485 -0.0748,-1.0471 -0.24932,-1.5458c-0.17452,-0.4737 -0.4737,-0.87261 -0.84767,-1.2216c-0.37398,-0.37398 -0.84768,-0.64822 -1.446,-0.84768c-0.59836,-0.19945 -1.3214,-0.29918 -2.1691,-0.29918c-0.29918,0 -0.57343,0 -0.84768,0.02493c-0.27425,0.02494 -0.54849,0.04987 -0.82274,0.09973c-0.24932,0.04986 -0.52357,0.09973 -0.77288,0.17452c-0.24932,0.0748 -0.52357,0.17453 -0.77289,0.29918l-0.82274,1.6954l0.12466,0.07479c0.37397,-0.29918 0.74795,-0.54849 1.0721,-0.74795c0.32411,-0.17452 0.64822,-0.32411 0.9474,-0.44877c0.29918,-0.09972 0.59836,-0.17452 0.87261,-0.22438c0.27425,-0.04987 0.5485,-0.0748 0.84768,-0.0748c0.39891,0 0.79781,0.04987 1.1469,0.17452c0.34904,0.12466 0.64822,0.32412 0.87261,0.57343c0.24931,0.24932 0.44877,0.57343 0.57342,0.94741c0.14959,0.37397 0.22439,0.84767 0.22439,1.3712l0,0.59836c-0.49863,0 -1.0222,0.04987 -1.5956,0.0748c-0.57343,0.04986 -1.1469,0.12466 -1.7452,0.24931c-0.59836,0.12466 -1.1468,0.27425 -1.7203,0.47371c-0.5485,0.19945 -1.0222,0.4737 -1.471,0.79781c-0.42384,0.32411 -0.77288,0.72302 -1.0222,1.1967c-0.27425,0.44877 -0.39891,0.99727 -0.39891,1.6206l-0.00019,-0.00016zm7.9532,-3.4655l0,2.3186l0,1.2715c0,0.37398 -0.02493,0.69809 -0.02493,0.99727c-0.09973,0.19946 -0.22439,0.37398 -0.39891,0.57343c-0.14959,0.19946 -0.37398,0.37398 -0.59836,0.5485c-0.24932,0.14959 -0.52357,0.29918 -0.84768,0.39891c-0.32411,0.12465 -0.67315,0.17452 -1.0471,0.17452c-0.82275,0 -1.471,-0.24932 -1.9447,-0.74795c-0.4737,-0.49864 -0.72302,-1.2217 -0.72302,-2.1441c0,-0.74795 0.17452,-1.3463 0.4737,-1.7702c0.29918,-0.44877 0.72302,-0.79781 1.2216,-1.0222c0.52357,-0.24931 1.1219,-0.3989 1.7951,-0.4737c0.67315,-0.07479 1.3712,-0.12466 2.0943,-0.12466l0,0.00008zm13.114,-0.57343l0,2.8921c0,0.67315 0,1.2715 -0.02494,1.7951c-0.02493,0.49864 -0.04986,0.92247 -0.07479,1.2964c-0.02493,0.37397 -0.0748,0.67316 -0.09973,0.92247c-0.04986,0.24932 -0.09972,0.44877 -0.14959,0.62329l0,0.04987l2.7674,0l0,-0.04987c-0.04986,-0.17452 -0.09973,-0.37397 -0.12466,-0.62329c-0.04986,-0.24932 -0.07479,-0.5485 -0.12466,-0.92247c-0.02493,-0.37398 -0.04986,-0.79781 -0.07479,-1.2964c0,-0.52356 -0.02493,-1.1219 -0.02493,-1.7951l0,-2.8921c0,-0.67315 0.02493,-1.2715 0.02493,-1.7702c0.02493,-0.52356 0.04986,-0.9474 0.07479,-1.3214c0.04987,-0.37397 0.0748,-0.67315 0.12466,-0.92247c0.02493,-0.24932 0.0748,-0.44877 0.12466,-0.62329l0,-0.04986l-2.7674,0l0,0.04986c0.04987,0.17452 0.09973,0.37397 0.14959,0.62329c0.02493,0.24932 0.0748,0.5485 0.09973,0.92247c0.02493,0.37398 0.04986,0.79782 0.07479,1.3214c0.02494,0.49864 0.02494,1.097 0.02494,1.7702zm-0.24932,-8.3022c0,0.17452 0.02493,0.34904 0.09973,0.49863c0.07479,0.14959 0.14959,0.29918 0.27425,0.42384c0.09972,0.09973 0.24931,0.19946 0.3989,0.27425c0.14959,0.04987 0.32411,0.09973 0.49864,0.09973c0.37397,0 0.67315,-0.12466 0.92247,-0.37397c0.24932,-0.24932 0.37397,-0.5485 0.37397,-0.92248c0,-0.17452 -0.02493,-0.34904 -0.09972,-0.49863c-0.0748,-0.14959 -0.14959,-0.29918 -0.27425,-0.39891c-0.12466,-0.12466 -0.24932,-0.22438 -0.39891,-0.29918c-0.17452,-0.04986 -0.32411,-0.09972 -0.52356,-0.09972c-0.17453,0 -0.34905,0.04986 -0.49864,0.09972c-0.14959,0.0748 -0.29918,0.17452 -0.39891,0.29918c-0.12465,0.09973 -0.19945,0.24932 -0.27424,0.39891c-0.0748,0.14959 -0.09973,0.32411 -0.09973,0.49863zm11.494,6.0335l-0.09973,-1.9945c-0.24932,-0.12465 -0.57343,-0.24931 -1.0222,-0.3989s-0.99727,-0.19946 -1.6704,-0.19946c-0.49864,0 -0.94741,0.0748 -1.3712,0.22439c-0.42384,0.14959 -0.79782,0.34904 -1.097,0.62329c-0.32411,0.27425 -0.5485,0.62329 -0.72302,0.99727c-0.17452,0.39891 -0.24931,0.82274 -0.24931,1.2715c0,0.57343 0.09972,1.0721 0.34904,1.5208c0.22438,0.44877 0.52356,0.84767 0.89754,1.2216c0.34904,0.37398 0.72302,0.72302 1.1469,1.0471c0.39891,0.32411 0.79781,0.64823 1.1469,0.99727c0.37397,0.32411 0.67315,0.64822 0.89754,1.0222c0.22438,0.34904 0.34904,0.72302 0.34904,1.1469c0,0.54849 -0.17452,0.97233 -0.52356,1.2964c-0.34905,0.32411 -0.79782,0.4737 -1.3962,0.4737c-0.34904,0 -0.69809,-0.04987 -0.99727,-0.17452c-0.29918,-0.12466 -0.57343,-0.29918 -0.79781,-0.52357c-0.24932,-0.19945 -0.44877,-0.4737 -0.59836,-0.79781c-0.17452,-0.29918 -0.27425,-0.64823 -0.37398,-1.0222l-0.17452,0l-0.12466,2.2688c0.17453,0.12466 0.34905,0.24932 0.57343,0.39891c0.22439,0.12466 0.4737,0.24932 0.74795,0.34904c0.27425,0.09973 0.57343,0.19946 0.92248,0.27425c0.32411,0.0748 0.67315,0.09973 1.0721,0.09973c0.62329,0 1.1967,-0.09973 1.6704,-0.27425c0.44877,-0.19945 0.84768,-0.44877 1.1469,-0.74795s0.49863,-0.64823 0.64822,-1.0222c0.14959,-0.39891 0.22439,-0.79781 0.22439,-1.1967c0,-0.49864 -0.12466,-0.97234 -0.37398,-1.4211c-0.24931,-0.42384 -0.54849,-0.82274 -0.89754,-1.2216c-0.37397,-0.37398 -0.77288,-0.74795 -1.1967,-1.097c-0.42384,-0.34905 -0.82274,-0.69809 -1.1967,-1.0471c-0.37397,-0.34904 -0.67316,-0.69808 -0.92247,-1.0471c-0.24932,-0.34904 -0.34905,-0.72302 -0.34905,-1.1219c0,-0.27425 0.02494,-0.52357 0.12466,-0.72302c0.09973,-0.22439 0.22439,-0.39891 0.39891,-0.52357c0.17452,-0.14959 0.34904,-0.24931 0.57343,-0.32411c0.22438,-0.07479 0.44877,-0.09973 0.69809,-0.09973c0.34904,0 0.67315,0.04987 0.9474,0.17453c0.27425,0.09972 0.52356,0.24931 0.72302,0.42384c0.17452,0.17452 0.34904,0.37397 0.4737,0.57342c0.12466,0.22439 0.19945,0.39891 0.27425,0.59837l0.14959,-0.02494l-0.00022,-0.00008zm8.6762,0l-0.09973,-1.9945c-0.24932,-0.12465 -0.57343,-0.24931 -1.0222,-0.3989s-0.99727,-0.19946 -1.6455,-0.19946c-0.52357,0 -0.97234,0.0748 -1.3962,0.22439s-0.79781,0.34904 -1.097,0.62329s-0.5485,0.62329 -0.72302,0.99727c-0.17452,0.39891 -0.24932,0.82274 -0.24932,1.2715c0,0.57343 0.12466,1.0721 0.34905,1.5208c0.22438,0.44877 0.52356,0.84767 0.89754,1.2216c0.34904,0.37398 0.74795,0.72302 1.1469,1.0471c0.42384,0.32411 0.79781,0.64823 1.1468,0.99727c0.37398,0.32411 0.67316,0.64822 0.89755,1.0222c0.24931,0.34904 0.34904,0.72302 0.34904,1.1469c0,0.54849 -0.17452,0.97233 -0.52357,1.2964c-0.32411,0.32411 -0.79781,0.4737 -1.3962,0.4737c-0.34904,0 -0.69809,-0.04987 -0.99727,-0.17452c-0.29918,-0.12466 -0.57343,-0.29918 -0.79781,-0.52357c-0.24932,-0.19945 -0.44877,-0.4737 -0.59836,-0.79781c-0.14959,-0.29918 -0.27425,-0.64823 -0.34905,-1.0222l-0.19945,0l-0.12466,2.2688c0.17452,0.12466 0.37398,0.24932 0.57343,0.39891c0.22438,0.12466 0.4737,0.24932 0.74795,0.34904c0.27425,0.09973 0.57343,0.19946 0.92247,0.27425c0.32411,0.0748 0.67316,0.09973 1.0721,0.09973c0.64822,0 1.1967,-0.09973 1.6704,-0.27425c0.44877,-0.19945 0.84768,-0.44877 1.1469,-0.74795s0.52356,-0.64823 0.64822,-1.0222c0.14959,-0.39891 0.22439,-0.79781 0.22439,-1.1967c0,-0.49864 -0.12466,-0.97234 -0.37398,-1.4211c-0.22438,-0.42384 -0.5485,-0.82274 -0.89754,-1.2216c-0.37398,-0.37398 -0.77288,-0.74795 -1.1967,-1.097c-0.42384,-0.34905 -0.82275,-0.69809 -1.1967,-1.0471c-0.37398,-0.34904 -0.67316,-0.69808 -0.92247,-1.0471c-0.22439,-0.34904 -0.34905,-0.72302 -0.34905,-1.1219c0,-0.27425 0.04986,-0.52357 0.12466,-0.72302c0.09973,-0.22439 0.24932,-0.39891 0.39891,-0.52357c0.17452,-0.14959 0.34904,-0.24931 0.57343,-0.32411c0.22438,-0.07479 0.44877,-0.09973 0.69808,-0.09973c0.37398,0 0.67316,0.04987 0.94741,0.17453c0.27425,0.09972 0.52356,0.24931 0.72302,0.42384c0.19945,0.17452 0.34904,0.37397 0.4737,0.57342c0.12466,0.22439 0.22438,0.39891 0.27425,0.59837l0.14959,-0.02494l-0.00001,-0.00008zm5.2855,5.6595l0,-3.3907c0,-0.67315 0.02494,-1.2715 0.02494,-1.7702c0.02493,-0.52356 0.04986,-0.9474 0.07479,-1.3214c0.02493,-0.37397 0.0748,-0.67315 0.09973,-0.92247c0.04986,-0.24931 0.09972,-0.44877 0.14959,-0.62329l0,-0.04986l-2.7674,0l0,0.04986c0.04986,0.17452 0.0748,0.37398 0.12466,0.62329c0.04986,0.24932 0.07479,0.5485 0.09973,0.92247c0.04986,0.37398 0.07479,0.79782 0.07479,1.3214c0.02493,0.49864 0.02493,1.097 0.02493,1.7702l0,4.0639c0,0.4737 0.0748,0.9474 0.19946,1.3962c0.12465,0.42384 0.32411,0.82275 0.59836,1.1967c0.27425,0.34905 0.62329,0.6233 1.0471,0.84768c0.44877,0.19946 0.97233,0.32411 1.5956,0.32411c0.3989,0 0.82274,-0.07479 1.2466,-0.19945c0.42384,-0.14959 0.82275,-0.32411 1.2466,-0.52357c0.39891,-0.22438 0.79782,-0.4737 1.1718,-0.72301c0.37398,-0.27425 0.74795,-0.5485 1.0721,-0.84768c-0.02494,0.52356 -0.0748,0.92247 -0.12466,1.2216c-0.04986,0.32411 -0.09973,0.57343 -0.14959,0.77288l0,0.04987l2.7674,0l0,-0.04987c-0.04987,-0.17452 -0.09973,-0.37397 -0.12466,-0.62329c-0.04987,-0.24932 -0.0748,-0.5485 -0.12466,-0.92247c-0.02493,-0.37398 -0.04986,-0.79781 -0.04986,-1.2964c-0.02494,-0.52356 -0.02494,-1.1219 -0.02494,-1.7951l0,-2.8921c0,-0.67315 0,-1.2715 0.02494,-1.7702c0,-0.52356 0.02493,-0.9474 0.04986,-1.3214c0.04986,-0.37397 0.07479,-0.67315 0.12466,-0.92247c0.02493,-0.24931 0.07479,-0.44877 0.12466,-0.62329l0,-0.04986l-2.7674,0l0,0.04986c0.04986,0.17452 0.09973,0.37398 0.14959,0.62329c0.02493,0.24932 0.07479,0.5485 0.09973,0.92247c0.02493,0.37398 0.04986,0.79782 0.07479,1.3214c0.02493,0.49864 0.02493,1.097 0.02493,1.7702l0,2.8921l0,0.84768c0,0.24931 0,0.49863 -0.02493,0.72302c-0.27425,0.27424 -0.59836,0.52356 -0.9474,0.77288c-0.32412,0.22438 -0.67316,0.44877 -0.99727,0.62329c-0.34905,0.17452 -0.67316,0.32411 -0.99727,0.42384c-0.32411,0.12466 -0.59836,0.17452 -0.87261,0.17452c-0.69809,0 -1.2715,-0.24932 -1.6954,-0.74795c-0.39891,-0.49863 -0.6233,-1.2715 -0.6233,-2.3186l0.00001,-0.00008zm17.278,4.4129c0.84768,0 1.5707,-0.07479 2.1691,-0.24932c0.59836,-0.14959 1.097,-0.34904 1.5458,-0.57342l0.8726,-2.1192l-0.14959,-0.07479c-0.17452,0.29918 -0.3989,0.59836 -0.67315,0.84767c-0.24932,0.24932 -0.5485,0.47371 -0.89754,0.67316c-0.32411,0.19945 -0.69809,0.34904 -1.097,0.44877c-0.42384,0.09973 -0.87261,0.17452 -1.3214,0.17452c-0.67315,0 -1.2715,-0.14959 -1.7951,-0.39891c-0.54849,-0.24931 -0.99727,-0.62329 -1.3712,-1.097c-0.34904,-0.4737 -0.64822,-1.0471 -0.87261,-1.7203c-0.19945,-0.67315 -0.32411,-1.4211 -0.37397,-2.2438c0.52356,-0.02493 1.1219,-0.02493 1.7702,-0.02493c0.64822,-0.02493 1.3463,-0.02493 2.0195,-0.02493c0.97234,0 1.9197,0 2.8173,0.02493c0.89754,0 1.82,0 2.7176,0.02493c-0.02493,-1.0222 -0.19946,-1.9197 -0.49864,-2.7176c-0.29918,-0.79782 -0.69808,-1.446 -1.2216,-1.9945c-0.49863,-0.52356 -1.1219,-0.9474 -1.82,-1.2216c-0.69809,-0.29918 -1.471,-0.42384 -2.2937,-0.42384c-0.82274,0 -1.5956,0.14959 -2.2937,0.4737c-0.72302,0.32412 -1.3463,0.74795 -1.8948,1.3214c-0.52357,0.57343 -0.9474,1.2466 -1.2466,2.0195c-0.29918,0.74795 -0.44877,1.5956 -0.44877,2.4932c0,1.0222 0.14959,1.9447 0.49863,2.7176c0.32411,0.79782 0.77288,1.471 1.3463,2.0195c0.57343,0.52356 1.2466,0.9474 2.0195,1.2216c0.77288,0.27425 1.6206,0.42384 2.4932,0.42384l-0.00001,0l-0.00035,-0.00018zm-1.5956,-7.305l-1.2466,0c-0.39891,0 -0.77288,-0.02494 -1.1219,-0.02494c0.02493,-0.72301 0.12465,-1.3463 0.29918,-1.8948c0.17452,-0.57343 0.42383,-1.0222 0.69808,-1.4211c0.29918,-0.37397 0.6233,-0.67316 1.0222,-0.87261c0.37398,-0.19945 0.79782,-0.29918 1.2715,-0.29918c0.49863,0 0.97233,0.09973 1.3962,0.29918c0.42384,0.19946 0.79782,0.49864 1.097,0.89754c0.32411,0.37398 0.57343,0.84768 0.77288,1.3962c0.19945,0.54849 0.32411,1.1718 0.39891,1.8699c-0.64823,0.02493 -1.3712,0.02493 -2.1691,0.02493c-0.82275,0.02493 -1.6206,0.02493 -2.4184,0.02493l0.00001,0l0.00004,-0.00005zm14.934,-2.7674l-0.12466,-1.9945c-0.22439,-0.12465 -0.57343,-0.24931 -0.99727,-0.3989c-0.44877,-0.14959 -0.99727,-0.19946 -1.6704,-0.19946c-0.49864,0 -0.97234,0.0748 -1.3712,0.22439c-0.42383,0.14959 -0.79781,0.34904 -1.097,0.62329c-0.32411,0.27425 -0.5485,0.62329 -0.72302,0.99727c-0.17452,0.39891 -0.27425,0.82274 -0.27425,1.2715c0,0.57343 0.12466,1.0721 0.37398,1.5208c0.22438,0.44877 0.52356,0.84767 0.87261,1.2216c0.37397,0.37398 0.74795,0.72302 1.1718,1.0471c0.3989,0.32411 0.79781,0.64823 1.1468,0.99727c0.34905,0.32411 0.64823,0.64822 0.89754,1.0222c0.22439,0.34904 0.34905,0.72302 0.34905,1.1469c0,0.54849 -0.17452,0.97233 -0.52357,1.2964c-0.34904,0.32411 -0.82274,0.4737 -1.3962,0.4737c-0.37398,0 -0.69809,-0.04987 -0.99727,-0.17452c-0.29918,-0.12466 -0.57343,-0.29918 -0.82275,-0.52357c-0.22438,-0.19945 -0.42383,-0.4737 -0.57342,-0.79781c-0.17453,-0.29918 -0.29918,-0.64823 -0.37398,-1.0222l-0.17452,0l-0.12466,2.2688c0.14959,0.12466 0.34904,0.24932 0.57343,0.39891c0.22438,0.12466 0.4737,0.24932 0.74795,0.34904c0.27425,0.09973 0.57343,0.19946 0.89754,0.27425c0.34905,0.0748 0.69809,0.09973 1.0721,0.09973c0.64823,0 1.2217,-0.09973 1.6704,-0.27425c0.4737,-0.19945 0.84767,-0.44877 1.1469,-0.74795c0.29918,-0.29918 0.52356,-0.64823 0.67315,-1.0222c0.14959,-0.39891 0.22439,-0.79781 0.22439,-1.1967c0,-0.49864 -0.12466,-0.97234 -0.37398,-1.4211c-0.24932,-0.42384 -0.5485,-0.82274 -0.92247,-1.2216c-0.34904,-0.37398 -0.74795,-0.74795 -1.1718,-1.097c-0.44877,-0.34905 -0.84768,-0.69809 -1.1967,-1.0471c-0.37398,-0.34904 -0.67316,-0.69808 -0.92247,-1.0471c-0.24932,-0.34904 -0.37398,-0.72302 -0.37398,-1.1219c0,-0.27425 0.04987,-0.52357 0.14959,-0.72302c0.09973,-0.22439 0.22439,-0.39891 0.39891,-0.52357c0.14959,-0.14959 0.34904,-0.24931 0.57343,-0.32411c0.22438,-0.07479 0.44877,-0.09973 0.69809,-0.09973c0.34904,0 0.67315,0.04987 0.9474,0.17453c0.27425,0.09972 0.52356,0.24931 0.69809,0.42384c0.19945,0.17452 0.37397,0.37397 0.49863,0.57342c0.12466,0.22439 0.19945,0.39891 0.24932,0.59837l0.17452,-0.02494l-0.00005,-0.00008z" id="svg_65"/>
     </g>
    </g>
   </g>
   <line stroke="#ffffff" x1="16031.460739" x2="16133.460739" y1="10433.136719" y2="10433.136719" fill="none" stroke-linecap="null" stroke-linejoin="null" stroke-width="3" id="svg_61"/>
   <line stroke="#ffffff" x1="16682.460739" x2="16784.460739" y1="10433.136719" y2="10433.136719" fill="none" stroke-linecap="null" stroke-linejoin="null" stroke-width="3" id="svg_60"/>
  </g>
  <text font-style="italic" xml:space="preserve" text-anchor="start" font-family="Helvetica, Arial, sans-serif" font-size="10" id="svg_4" y="210" x="10" stroke-width="0" stroke="#fff" fill="#ffffff">- update JIRA issue status within regular cell content or entire lists</text>
  <text xml:space="preserve" text-anchor="start" font-family="Helvetica, Arial, sans-serif" font-size="10" id="svg_5" y="224" x="10" stroke-width="0" stroke="#fff" fill="#ffffff">- insert JIRA issue lists based on your favorite JIRA Filters</text>
  <text xml:space="preserve" text-anchor="start" font-family="Helvetica, Arial, sans-serif" font-size="10" id="svg_6" y="238" x="10" stroke-width="0" stroke="#fff" fill="#ffffff">- Create Time Reports for users</text>
  <text xml:space="preserve" text-anchor="start" font-family="Helvetica, Arial, sans-serif" font-size="10" id="svg_7" y="252" x="10" stroke-width="0" stroke="#fff" fill="#ffffff">- Perform JQL searches and show results in your sheets</text>
  <text xml:space="preserve" text-anchor="start" font-family="Helvetica, Arial, sans-serif" font-size="10" id="svg_8" y="266" x="10" stroke-width="0" stroke="#fff" fill="#ffffff">- supports multiple JIRA custom field formats/types</text>
 </g>
</svg>