<svg width="280" height="315" xmlns="http://www.w3.org/2000/svg">
 <g>
  <defs>
   <linearGradient y2="0.0294" y1="0.9706" x2="1.0333" x1="-0.03332" id="a">
    <stop offset="0" stop-color="#1f42f7"/>
    <stop offset="0.472" stop-color="#63b106"/>
   </linearGradient>
  </defs>
  <g id="svg_47">
   <g id="svg_44">
    <g id="svg_2" transform="matrix(0.52089,0,0,0.52089,-1460.2,-1278.3) ">
     <title transform="translate(4.547473508864641e-13,-21.117664337158203) translate(4.547473508864641e-13,0.00003844796447083354) translate(4.547473508864641e-13,0.3867572247982025) translate(-493.3860778808594,0) translate(-0.000058587374951457605,0) translate(-0.955618679523468,0) translate(-1.9197911024093628,0) translate(-1.9197911024093628,0) translate(-1.9197911024093628,0) translate(-1.9197911024093628,0) ">Hexagon 01 Fill BG</title>
     <rect id="svg_3" fill="none" height="602" width="532" y="2454.069131" x="2803.27908"/>
    </g>
    <g id="svg_4" transform="matrix(0.52089,0,0,0.52089,-1460.2,-1278.3) ">
     <title transform="translate(4.547473508864641e-13,-21.117664337158203) translate(4.547473508864641e-13,0.00003844796447083354) translate(4.547473508864641e-13,0.3867572247982025) translate(-493.3860778808594,0) translate(-0.000058587374951457605,0) translate(-0.955618679523468,0) translate(-1.9197911024093628,0) translate(-1.9197911024093628,0) translate(-1.9197911024093628,0) translate(-1.9197911024093628,0) ">Hexagon 01 Fill</title>
     <g id="svg_5" fill="url(#a)">
      <path id="svg_6" d="m3087.07908,2460.869131l227.25,131.2a36.554,36.554 0 0 1 18.277,31.655l0,262.41a36.554,36.554 0 0 1 -18.277,31.655l-227.25,131.2a36.554,36.554 0 0 1 -36.554,0l-227.25,-131.2a36.554,36.554 0 0 1 -18.277,-31.655l0,-262.41a36.554,36.554 0 0 1 18.277,-31.655l227.25,-131.2a36.554,36.554 0 0 1 36.554,0z"/>
     </g>
    </g>
    <g id="svg_7" transform="matrix(0.48974,0,0,0.48974,-2447.5,-1502.9) ">
     <title transform="translate(-9.094947017729282e-13,-22.460857391357422) translate(-9.094947017729282e-13,0.00004089345384272747) translate(-9.094947017729282e-13,0.41135698556900024) translate(-524.7680053710938,-4.547473508864641e-13) translate(-0.0000623138330411166,-4.547473508864641e-13) translate(-1.016400933265686,-4.547473508864641e-13) translate(-2.0418996810913086,-4.547473508864641e-13) translate(-2.0418996810913086,-4.547473508864641e-13) translate(-2.0418996810913086,-4.547473508864641e-13) translate(-2.0418996810913086,-4.547473508864641e-13) ">Hexagon 02 Frame BG</title>
     <rect id="svg_8" fill="none" height="612" width="552" y="3083.35054" x="5004.447933"/>
    </g>
    <g id="svg_9" transform="matrix(0.48974,0,0,0.48974,-2447.5,-1502.9) ">
     <title transform="translate(-9.094947017729282e-13,-22.460857391357422) translate(-9.094947017729282e-13,0.00004089345384272747) translate(-9.094947017729282e-13,0.41135698556900024) translate(-524.7680053710938,-4.547473508864641e-13) translate(-0.0000623138330411166,-4.547473508864641e-13) translate(-1.016400933265686,-4.547473508864641e-13) translate(-2.0418996810913086,-4.547473508864641e-13) translate(-2.0418996810913086,-4.547473508864641e-13) translate(-2.0418996810913086,-4.547473508864641e-13) translate(-2.0418996810913086,-4.547473508864641e-13) ">Hexagon 02 Frame BG</title>
     <g id="svg_10" fill="#fff">
      <path id="svg_11" d="m5280.447933,3683.05054c-11.123,0 -21.593,-2.6173 -31.407,-8.5062l-202.19,-115.81c-19.63,-11.123 -31.407,-32.062 -31.407,-54.309l0,-231.63c0,-22.247 11.778,-43.185 31.407,-54.309l202.19,-115.81c19.63,-11.123 43.185,-11.123 62.815,0l202.19,115.81c19.63,11.123 31.407,32.062 31.407,54.309l0,232.28c0,22.247 -11.778,43.185 -31.407,54.309l-202.19,115.16c-9.8148,5.8889 -20.284,8.5062 -31.407,8.5062l-0.001,0zm0,-575.8c-8.5062,0 -17.012,1.963 -24.864,6.5432l-202.19,116.47c-15.049,8.5062 -24.864,24.864 -24.864,42.531l0,232.28c0,17.667 9.1605,34.025 24.864,42.531l202.19,115.81c15.049,8.5062 34.025,8.5062 49.074,0l202.19,-115.81c15.049,-8.5062 24.864,-24.864 24.864,-42.531l0,-232.28c0,-17.667 -9.1605,-34.025 -24.864,-42.531l-201.53,-116.47c-7.8518,-3.9259 -16.358,-6.5432 -24.864,-6.5432l-0.006,0zm0,511.02c-8.5062,0 -17.667,-1.963 -24.864,-6.5432l-157.04,-90.296c-15.704,-9.1605 -24.864,-25.519 -24.864,-43.185l0,-179.94c0,-17.667 9.8148,-34.025 24.864,-43.185l157.04,-90.296c15.704,-9.1605 34.679,-9.1605 50.383,0l157.04,90.296c15.704,9.1605 24.864,25.519 24.864,43.185l0,179.94c0,17.667 -9.8148,34.025 -24.864,43.185l-157.04,90.296c-7.8518,4.5802 -17.012,6.5432 -25.519,6.5432zm0,-446.25c-6.5432,0 -12.432,1.3086 -18.321,4.5802l-157.04,90.296c-11.123,6.5432 -18.321,18.321 -18.321,31.407l0,179.94c0,13.086 7.1975,24.864 18.321,31.407l157.04,90.296c11.123,6.5432 25.519,6.5432 36.642,0l157.04,-90.296c11.123,-6.5432 18.321,-18.321 18.321,-31.407l0,-179.94c0,-13.086 -7.1975,-24.864 -18.321,-31.407l-157.04,-90.296c-5.8889,-2.6173 -11.778,-4.5802 -18.321,-4.5802z"/>
     </g>
    </g>
    <g id="svg_12" transform="matrix(0.37427,0,0,0.37427,-978.6,-643.81) ">
     <title transform="translate(4.547473508864641e-13,-29.390493392944336) translate(4.547473508864641e-13,0.00005350992796593346) translate(4.547473508864641e-13,0.5382691025733948) translate(-686.6697387695312,0) translate(-0.00008153893577400595,0) translate(-1.3299815654754639,0) translate(-2.671867847442627,0) translate(-2.671867847442627,0) translate(-2.671867847442627,0) translate(-2.671867847442627,0) ">Hexagon 03 White BG</title>
     <rect id="svg_13" fill="none" height="602" width="532" y="1840.947829" x="2718.812727"/>
    </g>
    <g id="svg_14" transform="matrix(0.37427,0,0,0.37427,-978.6,-643.81) ">
     <title transform="translate(4.547473508864641e-13,-29.390493392944336) translate(4.547473508864641e-13,0.00005350992796593346) translate(4.547473508864641e-13,0.5382691025733948) translate(-686.6697387695312,0) translate(-0.00008153893577400595,0) translate(-1.3299815654754639,0) translate(-2.671867847442627,0) translate(-2.671867847442627,0) translate(-2.671867847442627,0) translate(-2.671867847442627,0) ">Hexagon 03 White</title>
     <g id="svg_15" fill="#fff">
      <path id="svg_16" d="m3003.112727,1851.747829l224.23,129.46a36.069,36.069 0 0 1 18.034,31.235l0,258.92a36.069,36.069 0 0 1 -18.034,31.235l-224.23,129.46a36.069,36.069 0 0 1 -36.069,0l-224.23,-129.46a36.069,36.069 0 0 1 -18.034,-31.235l0,-258.92a36.069,36.069 0 0 1 18.034,-31.235l224.23,-129.46a36.069,36.069 0 0 1 36.069,0z"/>
     </g>
    </g>
   </g>
   <g id="svg_45">
    <g id="svg_17" transform="matrix(0.26743,0,0,0.26743,-164.27,-83.492) ">
     <title transform="translate(0,-41.13218307495117) translate(0,0.00007488748815376312) translate(0,0.753311038017273) translate(-960.9986572265625,0) translate(-0.00011411426385166124,0) translate(-1.861317753791809,0) translate(-3.7392961978912354,0) translate(-3.7392961978912354,0) translate(-3.7392961978912354,0) translate(-3.7392961978912354,0) ">Sheet BG</title>
     <rect id="svg_18" fill="none" height="477" width="477" y="652.621203" x="893.182726"/>
    </g>
    <g id="svg_19" transform="matrix(0.26743,0,0,0.26743,-164.27,-83.492) ">
     <title transform="translate(0,-41.13218307495117) translate(0,0.00007488748815376312) translate(0,0.753311038017273) translate(-960.9986572265625,0) translate(-0.00011411426385166124,0) translate(-1.861317753791809,0) translate(-3.7392961978912354,0) translate(-3.7392961978912354,0) translate(-3.7392961978912354,0) translate(-3.7392961978912354,0) ">Sheet</title>
     <g id="svg_20" stroke-width="4.5" stroke="#519205" fill="none">
      <rect id="svg_21" height="457" width="457" y="663.621203" x="904.182726"/>
      <rect id="svg_22" height="400" width="365" y="720.621203" x="996.182726"/>
      <line id="svg_23" stroke-opacity="null" stroke-linejoin="null" stroke-linecap="null" fill-opacity="null" y2="665.621203" y1="720.621203" x2="996.182726" x1="996.182726"/>
      <line id="svg_24" stroke-opacity="null" stroke-linejoin="null" stroke-linecap="null" fill-opacity="null" y2="720.621203" y1="720.621203" x2="996.182726" x1="904.182726"/>
     </g>
     <line id="svg_25" stroke-width="2.5" stroke-linejoin="null" stroke-linecap="null" stroke="#519205" fill="none" y2="1118.621203" y1="663.621203" x2="1089.682726" x1="1089.682726"/>
     <line id="svg_26" stroke-width="2.5" stroke-linejoin="null" stroke-linecap="null" stroke="#519205" fill="none" y2="718.621203" y1="663.621203" x2="1184.682726" x1="1184.682726"/>
     <line id="svg_27" stroke-width="2.5" stroke-linejoin="null" stroke-linecap="null" stroke="#519205" fill="none" y2="718.621203" y1="663.621203" x2="1274.682726" x1="1274.682726"/>
     <line id="svg_28" stroke-width="2.5" stroke-linejoin="null" stroke-linecap="null" stroke="#519205" fill="none" y2="773.621203" y1="773.621203" x2="1089.682726" x1="904.682726"/>
     <line id="svg_29" stroke-width="2.5" stroke-linejoin="null" stroke-linecap="null" stroke="#519205" fill="none" y2="823.621203" y1="823.621203" x2="1089.682726" x1="904.682726"/>
     <line id="svg_30" stroke-width="2.5" stroke-linejoin="null" stroke-linecap="null" stroke="#519205" fill="none" y2="873.621203" y1="873.621203" x2="1361.682726" x1="904.682726"/>
     <line id="svg_31" stroke-width="2.5" stroke-linejoin="null" stroke-linecap="null" stroke="#519205" fill="none" y2="922.621203" y1="923.621203" x2="1361.682726" x1="904.682726"/>
     <line id="svg_32" stroke-width="2.5" stroke-linejoin="null" stroke-linecap="null" stroke="#519205" fill="none" y2="973.621203" y1="973.621203" x2="1361.682726" x1="904.682726"/>
     <line id="svg_33" stroke-width="2.5" stroke-linejoin="null" stroke-linecap="null" stroke="#519205" fill="none" y2="1023.621203" y1="1023.621203" x2="1361.682726" x1="904.682726"/>
     <line id="svg_34" stroke-width="2.5" stroke-linejoin="null" stroke-linecap="null" stroke="#519205" fill="none" y2="1073.621203" y1="1073.621203" x2="1361.682726" x1="904.682726"/>
     <line id="svg_35" stroke-width="2.5" stroke-linejoin="null" stroke-linecap="null" stroke="#519205" fill="none" y2="1118.621203" y1="873.621203" x2="1184.682726" x1="1184.682726"/>
     <line id="svg_36" stroke-width="2.5" stroke-linejoin="null" stroke-linecap="null" stroke="#519205" fill="none" y2="1118.621203" y1="873.621203" x2="1274.682726" x1="1274.682726"/>
    </g>
   </g>
   <g id="svg_46">
    <g id="svg_37" transform="matrix(0.066501,0,0,0.066501,203.76,105.65) ">
     <title transform="translate(0,-165.41075134277344) translate(0,0.0003011557855643332) translate(0,3.02939772605896) translate(-3864.601806640625,0) translate(-0.0004589040472637862,0) translate(-7.4851837158203125,0) translate(-15.037367820739746,0) translate(-15.037367820739746,0) translate(-15.037367820739746,0) translate(-15.037367820739746,0) ">Diagram BG</title>
     <rect id="svg_38" fill="none" height="582" width="582" y="83.488948" x="-891.136921"/>
    </g>
    <g id="svg_39" transform="matrix(0.066501,0,0,0.066501,203.76,105.65) ">
     <title transform="translate(0,-165.41075134277344) translate(0,0.0003011557855643332) translate(0,3.02939772605896) translate(-3864.601806640625,0) translate(-0.0004589040472637862,0) translate(-7.4851837158203125,0) translate(-15.037367820739746,0) translate(-15.037367820739746,0) translate(-15.037367820739746,0) translate(-15.037367820739746,0) ">Diagram</title>
     <g id="svg_40" fill="#519205">
      <path id="svg_41" d="m-880.136921,385.648948c5.5665,149.86 130.06,270.62 280.74,270.62c71.295,0 138.86,-26.653 191.1,-75.189l-195.43,-195.43l-276.41,0l0.00001,0l-0.00001,-0.001zm305.99,0l180.65,180.65a279.56,279.56 0 0 0 74.832,-180.65l-255.48,0l-0.002,0zm180.65,-201.55l-180.65,180.62l255.48,0a279.78,279.78 0 0 0 -74.832,-180.62l0.002,0zm-486.64,180.65l270.26,0l0,-270.24a279.15,279.15 0 0 0 -270.26,270.24zm291.21,-14.807l180.62,-180.65a279.39,279.39 0 0 0 -180.62,-74.805l0,255.46l0,-0.005z"/>
     </g>
    </g>
   </g>
  </g>
 </g>
</svg>